<?xml version="1.0" encoding="utf-8"?>
<!-- Generator: Adobe Illustrator 27.6.1, SVG Export Plug-In . SVG Version: 6.00 Build 0)  -->
<svg version="1.1" id="Layer_1" xmlns="http://www.w3.org/2000/svg" xmlns:xlink="http://www.w3.org/1999/xlink" x="0px" y="0px"
	 viewBox="0 0 1024 1024" style="enable-background:new 0 0 1024 1024;" xml:space="preserve">
<style type="text/css">
	.st0{fill:url(#SVGID_1_);}
	.st1{fill:url(#SVGID_00000158019987128174473150000014496401325352024230_);}
</style>
<g>
	<linearGradient id="SVGID_1_" gradientUnits="userSpaceOnUse" x1="3.58" y1="-0.5027" x2="1013.198" y2="1005.8793">
		<stop  offset="0" style="stop-color:#7900FF"/>
		<stop  offset="1" style="stop-color:#BC7DFF"/>
	</linearGradient>
	<path class="st0" d="M0,547.6c0,52.7,13.9,94.2,41.5,124.5c27.6,30.1,65.7,45.2,114,45.2c39,0,71.1-11.2,96.1-33.5
		c25-22.3,40.6-51.2,46.6-86.8h-70.6c-4.6,16.8-10.5,29.5-17.5,37.9c-12.8,15.6-31.3,23.5-55.7,23.5c-22.7,0.4-44.4-9.6-58.7-27.3
		c-15.4-18.3-23.1-45.7-23.1-82.3s7.3-64.9,21.9-84.9c14.6-20,34.5-30,59.8-30c24.8,0,43.6,7.1,56.3,21.3
		c7.1,7.9,12.8,19.7,17.4,35.4h71c-1.1-20.4-8.8-40.7-23.3-60.9c-26.1-36-67.5-54.1-124-54.1c-42.3,0-77.1,13.4-104.4,40.3
		C15.7,446.7,0,490.6,0,547.6z M505,438.5c14.6,0,25.6,1.8,32.9,5.7c12.9,6.8,19.5,20.1,19.5,39.9c0,18.3-6.7,30.5-20.1,36.7
		c-7.6,3.5-18.9,5.3-34.1,5.3h-76.5v-87.7H505L505,438.5z M519.7,381.7H357.2v326.4h69.4v-128H496c19.8,0,33.2,3.5,40.4,10.4
		c7.2,7,10.9,20.8,11.2,41.6l0.5,30.3c0.2,15.5,2.8,30.9,7.6,45.6h78.2v-8.1c-6.8-4-11.6-10.8-13-18.6c-1.6-10-2.2-20.2-1.8-30.4
		v-21.8c0-22.9-3.2-39.9-9.8-51.1c-6.6-11.1-17.7-19.7-33.2-25.8c18.6-6.2,32.2-16.8,40.3-31.8c7.9-14,12.1-29.7,12.3-45.7
		c0-12.8-2.1-24.2-6.3-34.3c-4.2-10-10-19.3-17.1-27.4c-8.7-10-19.6-17.8-31.9-22.8C560.8,385,542.9,382.2,519.7,381.7z
		 M860.5,638.4l-61.8-256.7H695.3v326.4h66.2V487.4c0-6.4,0-15.3-0.1-26.8l-0.3-26.5l63.9,274H894l64.4-274l-0.3,26.5l-0.3,26.8
		v220.7h66.2V381.7H921.9L860.5,638.4z"/>
	
		<linearGradient id="SVGID_00000022533037762605907490000008469948793936542875_" gradientUnits="userSpaceOnUse" x1="0.695" y1="2.3916" x2="1010.313" y2="1008.7736">
		<stop  offset="0" style="stop-color:#7900FF"/>
		<stop  offset="1" style="stop-color:#BC7DFF"/>
	</linearGradient>
	<path style="fill:url(#SVGID_00000022533037762605907490000008469948793936542875_);" d="M118,307.2
		C231,89.6,498.9,4.8,716.5,117.8c81.1,42.1,147.3,108.3,189.4,189.4h75.2C902,126.4,721.9,0,512,0S121.9,126.4,42.8,307.2H118z
		 M861.9,785.1C711.6,978.3,433.2,1013.1,240,862.9c-29.1-22.6-55.2-48.7-77.8-77.8H79.4C229.6,1024,545.1,1095.9,784,945.6
		c64.9-40.8,119.8-95.7,160.6-160.6H861.9z"/>
</g>
</svg>
