<?xml version="1.0" encoding="utf-8"?>
<!-- Generator: Adobe Illustrator 27.6.1, SVG Export Plug-In . SVG Version: 6.00 Build 0)  -->
<svg version="1.1" id="Layer_1" xmlns="http://www.w3.org/2000/svg" xmlns:xlink="http://www.w3.org/1999/xlink" x="0px" y="0px"
	 viewBox="0 0 512 512" style="enable-background:new 0 0 512 512;" xml:space="preserve">
<style type="text/css">
	.st0{fill:url(#SVGID_1_);}
	.st1{fill:url(#SVGID_00000168096888331910901700000013540967889003656877_);}
	.st2{fill:url(#SVGID_00000076572917933799382370000013369568327805133213_);}
	.st3{fill:url(#SVGID_00000016053251692868710780000014246675725284727953_);}
	.st4{fill:url(#SVGID_00000149382762253008324280000006496748468617256065_);}
	.st5{fill:url(#SVGID_00000091710238851275381030000010858308280270221729_);}
	.st6{fill:url(#SVGID_00000114072080470400726600000001382415761402693542_);}
	.st7{fill:url(#SVGID_00000022552177482000607270000013636926659932587967_);}
	.st8{fill:url(#SVGID_00000099643446365428430140000009531237505730836619_);}
	.st9{fill:url(#SVGID_00000018944531133054707170000006173136216392154779_);}
	.st10{fill:url(#SVGID_00000178198765389805479860000017196000264707545752_);}
	.st11{fill:url(#SVGID_00000119098635286595026320000010589347683608611747_);}
	.st12{fill:url(#SVGID_00000182506750598716138870000002075443223312745603_);}
	.st13{fill:url(#SVGID_00000088823399588746714560000018040290717538508446_);}
	.st14{fill:url(#SVGID_00000136386554478491309770000003432101221761793446_);}
	.st15{fill:url(#SVGID_00000135669992769205362850000000145842579671621264_);}
	.st16{fill:url(#SVGID_00000170965910710296027490000004460802313066092436_);}
	.st17{fill:url(#SVGID_00000165940498543986778820000008200965409555954057_);}
	.st18{fill:url(#SVGID_00000100349594763125130940000013430746813489341339_);}
	.st19{fill:url(#SVGID_00000170263101188653892320000006066200105852753045_);}
	.st20{fill:url(#SVGID_00000021098073623200166450000014590551392340312205_);}
	.st21{fill:url(#SVGID_00000077323699456081679250000005082440956893007551_);}
	.st22{fill:url(#SVGID_00000135660663980952042960000015535721787039089047_);}
	.st23{fill:url(#SVGID_00000176753202787019445080000001002104635549212080_);}
	.st24{fill:url(#SVGID_00000165951457762851887270000000370536157411138956_);}
	.st25{fill:url(#SVGID_00000046319163857667420590000017832007114070409887_);}
	.st26{fill:url(#SVGID_00000096039733622239466270000006376182914806960804_);}
	.st27{fill:url(#SVGID_00000089546010507261636610000000616796133141912213_);}
	.st28{fill:url(#SVGID_00000040577027829171466930000003963804806131227568_);}
	.st29{fill:url(#SVGID_00000138543554422753470760000002770617158846705827_);}
	.st30{fill:url(#SVGID_00000037670917817210238500000009939074595689402241_);}
	.st31{fill:url(#SVGID_00000045580623890353501450000001760177966552610966_);}
	.st32{fill:url(#SVGID_00000045583942244574805290000003094317096511504037_);}
	.st33{fill:url(#SVGID_00000013898080030075480750000006053589183981115563_);}
	.st34{fill:url(#SVGID_00000176757191699469557600000008132201170161822357_);}
	.st35{fill:url(#SVGID_00000096781680449913000520000001784431963769586331_);}
	.st36{fill:url(#SVGID_00000064337083017833557060000015510783571730034562_);}
	.st37{fill:url(#SVGID_00000077306730618190582620000016876737786477276860_);}
	.st38{fill:url(#SVGID_00000101823722922565460010000016278549642047348126_);}
	.st39{fill:url(#SVGID_00000005984772505055225660000014949427267038161796_);}
	.st40{fill:url(#SVGID_00000061472483510811196680000007546604884897897602_);}
	.st41{fill:url(#SVGID_00000177449394492264315980000004971142095258468246_);}
	.st42{fill:url(#SVGID_00000034073759434791726680000005626474220677190562_);}
	.st43{fill:url(#SVGID_00000164476830691513681910000009710975082419738544_);}
	.st44{fill:url(#SVGID_00000165948097229225881640000004537361919919671698_);}
	.st45{fill:url(#SVGID_00000152226735135337603780000009308167963015856784_);}
	.st46{fill:url(#SVGID_00000165230040944709671610000003981673513935136648_);}
	.st47{fill:url(#SVGID_00000031176002835599434300000008667906557748920449_);}
	.st48{fill:url(#SVGID_00000087394572361746457080000009842839234871194254_);}
	.st49{fill:url(#SVGID_00000155109718501131890950000004374140598186769831_);}
	.st50{fill:url(#SVGID_00000020357780804333646390000009444539937381329583_);}
	.st51{fill:url(#SVGID_00000171694343389635034480000008690517146454067874_);}
	.st52{fill:url(#SVGID_00000169538960138694704050000007277350311965765779_);}
	.st53{fill:url(#SVGID_00000069375189533373750810000006832271579540618633_);}
	.st54{fill:url(#SVGID_00000162310177853580348730000013277407975340815262_);}
	.st55{fill:url(#SVGID_00000132807164051734855110000006746431758919330689_);}
	.st56{fill:url(#SVGID_00000146457732453441408500000007507761243638002335_);}
	.st57{fill:url(#SVGID_00000000931899202569177610000003086043375854920577_);}
	.st58{fill:url(#SVGID_00000119799121497408001500000018403692652661693841_);}
	.st59{fill:url(#SVGID_00000082328350404641808770000009865575106820942758_);}
	.st60{fill:url(#SVGID_00000060723652162401077840000014475017336577176224_);}
	.st61{fill:url(#SVGID_00000090283837715885786360000000762671568587887003_);}
	.st62{fill:url(#SVGID_00000070821703430923397020000015121175792547713446_);}
	.st63{fill:url(#SVGID_00000061474060515052201440000005905656529769743020_);}
	.st64{fill:url(#SVGID_00000029047166325851612570000002596061972358762402_);}
	.st65{fill:url(#SVGID_00000157284106829344825870000000136396599403653794_);}
	.st66{fill:url(#SVGID_00000153706496723696094010000003854976801320827011_);}
</style>
<g>
	<linearGradient id="SVGID_1_" gradientUnits="userSpaceOnUse" x1="-37.0094" y1="31.5053" x2="466.1816" y2="531.4604">
		<stop  offset="0" style="stop-color:#7900FF"/>
		<stop  offset="1" style="stop-color:#BC7DFF"/>
	</linearGradient>
	<path class="st0" d="M0,269.1c0-16.3,0-32.6,0-48.9c1.1-0.7,1.1-0.7,0-3c0-0.3,0-0.7,0-1c0.5-0.3,1.3-0.4,1.6-0.8
		c1.1-1.5,1.9-3.1,3-4.6c1.7-2.2,3.6-4.2,6.4-5.2c2-0.7,4-1.4,5.9-2.1c32,0,64.1,0,96.1,0c0-8.6,0-16.9,0-25.2
		c0.6-9,6.2-13.5,14-14.4c1.2,0,2.3,0,3.5,0c18.4,0,36.8,0.1,55.2,0.1c10.2,0,20.4,0,30.7-0.1c1.1,0,2.1,0.1,3.2,0.1
		c4.6-0.3,8.8,0.8,12.7,3.4c3.9,3.1,4.7,7.4,4.8,11.9c0.1,7.4,0.1,14.9,0,22.3c0,1.1-0.1,2.3,1.6,1.8c0.9,0,1.8,0.1,2.7,0.1
		c29.4,0,58.8,0,88.2,0c1.5,0,2.9,0,4.4,0.1c0.5,0.2,1,0.3,1.4,0.5c5.4,2.1,9.8,5.4,12.8,10.3c0.2,0.3,0.3,0.7,0.5,1
		c0.4,3.6,0.8,7.2,1.2,10.8c0,1.3,0,2.6,0,3.9c0.1,0.8,0.2,1.7,0.3,2.5c0,11,0.1,22,0.1,33c0,0.8,0,1.6,0,2.5
		c0.4,2.8-2.1,3.5-3.7,4.9c-0.5,0.3-1,0.7-1.5,1c-0.3,0.2-0.6,0.4-0.9,0.5c-0.3,0.3-0.7,0.6-1,0.9c-0.4,0.2-0.7,0.4-1.1,0.6
		c-1.9,1.2-3.9,2.3-5.8,3.5c-1.5,0.9-2.9,1.9-4.4,2.8c-0.6,0.4-1.1,0.7-1.7,1.1c-0.1,0-0.3,0-0.4,0c-0.5,0.4-1,0.9-1.5,1.3
		c-0.7,0.3-1.3,0.7-2,1c-2,1.2-4,2.4-6,3.5c-1.3,0.6-2.6,1.3-3.9,1.9c-0.5,0.3-1,0.7-1.5,1c-1.8,1-3.7,2-5.5,3
		c-0.1,0.1-0.3,0.3-0.4,0.4c-0.5,0.2-1,0.4-1.5,0.6c-5.9,3-11.9,6-17.8,9c-1,0.5-2,1-3,1.5c-0.7,0.3-1.3,0.6-2,0.8
		c-0.5,0.2-1,0.4-1.5,0.6c-0.8,0.3-1.7,0.7-2.5,1c-1.5,0.8-3,1.5-4.6,2.3c-0.5,0.2-0.9,0.3-1.4,0.5c-1.2,0.5-2.3,1-3.5,1.5
		c-1,0.4-2,0.7-2.9,1.1c-1.3,0.5-2.6,1-4,1.5c-1.2,0.5-2.3,1-3.5,1.5c-0.8,0.3-1.7,0.7-2.5,1c-0.5,0.1-1,0.3-1.5,0.4
		c-0.5,0.3-1,0.6-1.5,0.9c-4.3,1.4-8.6,2.8-12.9,4.2c-0.2,0.1-0.4,0.2-0.5,0.4c-2.3,0.7-4.6,1.4-6.9,2.1c-0.5,0.2-1,0.3-1.5,0.5
		c-0.7,0.2-1.3,0.3-2,0.5c-0.8,0.3-1.7,0.5-2.5,0.8c-4.5,1.2-8.9,2.3-13.4,3.5c-0.3,0.1-0.6,0.1-1,0.2c-2.3,0.7-4.6,1.3-6.9,2
		c-1.6,0.1-1.5-0.9-1.5-2c-0.2-5.9-0.4-11.9-0.6-17.8c0-0.3,0-0.7,0-1c-0.1-0.7-0.2-1.3-0.4-2c-0.2-0.8-0.4-1.6-0.6-2.4
		c-1.5-4.3-4.8-6.8-8.9-8.3c-0.3,0-0.6-0.1-1-0.1c-1.1-0.3-2.2-0.9-3.3-0.9c-12.1,0.1-24.3,0.4-36.4,0.6c-0.3,0.2-0.7,0.4-1,0.5
		c-4,1-6.7,3.7-8.5,7.2c-0.8,2.9-2,5.7-2.3,8.6c-0.3,3.2,0.2,6.5,0.3,9.7c-0.2,0.2-0.5,0.3-0.7,0.5c0.2,0.2,0.5,0.3,0.7,0.5
		c0,0.8,0,1.6,0,2.5c-1.3,0.7-1.3,1.3,0,2c0,0.6,0,1.2,0,2c-1.6-0.2-3-0.3-4.4-0.4c-0.5-0.2-1-0.3-1.5-0.5c-1-0.2-2-0.4-3-0.6
		c-1.2-0.3-2.3-0.6-3.5-1c-1.3-0.4-2.7-0.9-4-1.3c-2-0.5-4-1-6-1.5c-2.8-0.9-5.6-1.7-8.4-2.6c-0.7-0.2-1.3-0.3-2-0.5
		c-2.3-0.8-4.6-1.6-7-2.4c-1.4-0.5-2.9-1-4.3-1.5c-0.7-0.3-1.4-0.6-2.1-1c-1-0.3-2-0.7-3-1c-0.8-0.3-1.7-0.7-2.5-1
		c-2.3-0.9-4.6-1.7-6.9-2.6c-1-0.4-2-0.9-3-1.3c-1-0.4-2-0.7-2.9-1.1c-0.4-0.2-0.8-0.4-1.2-0.6c-0.8-0.3-1.6-0.6-2.3-0.8
		c-0.3-0.2-0.7-0.3-1-0.5c-0.7-0.3-1.3-0.6-2-0.9c-0.8-0.4-1.6-0.8-2.5-1.1c-0.8-0.3-1.7-0.6-2.5-1c-0.7-0.3-1.3-0.7-2-1
		c-0.7-0.3-1.3-0.7-2-1c-0.7-0.3-1.3-0.7-2-1c-7.1-3.6-14.2-7.2-21.3-10.8c-3-1.7-5.9-3.4-8.9-5c-0.5-0.3-1-0.6-1.5-0.9
		c-0.4-0.3-0.8-0.5-1.1-0.8c-0.8-0.4-1.5-0.9-2.3-1.3c-0.5-0.3-1-0.6-1.5-0.9c-0.5-0.3-1-0.6-1.6-0.9c-0.7-0.4-1.3-0.8-2-1.1
		c-1.7-1-3.3-2-5-3c-0.2-0.2-0.3-0.3-0.5-0.5c-0.3-0.2-0.7-0.4-1-0.5c-0.5-0.3-1-0.6-1.5-1c0,0,0,0,0,0c-0.8-0.5-1.6-1-2.5-1.5
		c-1.5-1-3-2-4.5-3c-0.8-0.6-1.7-1.2-2.5-1.8c-0.1-0.1-0.3-0.1-0.4-0.1c-0.7-0.5-1.3-1-2-1.5C1.3,270.1,0.7,269.6,0,269.1z
		 M214.3,182.7c-9.6,0-18.9,0-28.2,0c-15.9,0-31.7,0-47.6,0c-1.3,0-2.5-0.1-2.5,1.8c0,6.1,0,12.3,0,18.4c0.5,0.2,0.7,0.3,1,0.3
		c20.5,0,41,0,61.5,0c4.6,0,9.2,0.2,13.8,0.4c1.4,0,2.2-0.3,2.1-1.9C214.3,195.4,214.3,189.3,214.3,182.7z"/>
	
		<linearGradient id="SVGID_00000154425042671281131970000006053609915365620923_" gradientUnits="userSpaceOnUse" x1="-100.1959" y1="95.1008" x2="402.9951" y2="595.0558">
		<stop  offset="0" style="stop-color:#7900FF"/>
		<stop  offset="1" style="stop-color:#BC7DFF"/>
	</linearGradient>
	<path style="fill:url(#SVGID_00000154425042671281131970000006053609915365620923_);" d="M0,429c0-43.4,0-86.9,0-130.3
		c0.2-0.1,0.3-0.1,0.5-0.2c2,1.2,4,2.4,5.9,3.6c0.7,0.4,1.3,0.7,2,1.1c0.5,0.3,1,0.6,1.5,0.9c0.3,0.2,0.6,0.4,1,0.6
		c2,1.1,4,2.3,6,3.4c0.3,0.3,0.7,0.5,1,0.8c0.8,0.4,1.6,0.8,2.4,1.2c0.5,0.3,1,0.6,1.5,0.9c3.1,1.8,6.3,3.5,9.4,5.3
		c0.5,0.2,1,0.5,1.5,0.7c0.3,0.3,0.7,0.5,1,0.8c0.7,0.3,1.3,0.7,2,1c0.5,0.2,1,0.4,1.4,0.6c0.2,0.1,0.4,0.3,0.5,0.4
		c0.7,0.3,1.3,0.7,2,1c0.8,0.4,1.6,0.7,2.5,1.1c0.3,0.2,0.7,0.3,1,0.5c1,0.5,2,1,3,1.5c0.7,0.3,1.3,0.7,2,1c0.2,0.1,0.3,0.2,0.5,0.3
		c0.3,0.2,0.7,0.3,1,0.5c0.7,0.3,1.3,0.7,2,1c0.1,0.1,0.3,0.1,0.5,0.1c0.5,0.2,1,0.4,1.5,0.6c0.7,0.3,1.3,0.6,2,0.9
		c1,0.5,1.9,1,2.9,1.5c0.2,0.1,0.4,0.2,0.6,0.4c1.8,0.7,3.6,1.4,5.4,2.2c0.3,0.2,0.7,0.3,1,0.5l0,0c1.5,0.6,3,1.2,4.5,1.8
		c1,0.4,2,0.8,3,1.1c0.5,0.3,1,0.6,1.5,0.8c0.6,0.2,1.2,0.4,1.9,0.6c0.5,0.3,1.1,0.6,1.6,0.8c1,0.3,2,0.7,3,1
		c0.1,0.1,0.2,0.2,0.4,0.1c0.2,0.1,0.4,0.2,0.6,0.4c0.5,0.2,1,0.3,1.5,0.5c0.6,0.2,1.2,0.4,1.9,0.7c1.2,0.4,2.4,0.9,3.6,1.3
		c1.6,0.5,3.2,1.1,4.8,1.6c0.2,0.1,0.4,0.2,0.6,0.4c1.6,0.5,3.3,1.1,4.9,1.6c0.2,0.1,0.4,0.2,0.5,0.3c2.6,0.9,5.1,1.8,7.7,2.6
		c1.2,0.4,2.5,0.7,3.7,1c0.2,0,0.3,0,0.5,0c0.2,0,0.3,0,0.5-0.1c1,0.4,2,0.8,2.9,1.2c0.3,0.1,0.7,0.2,1,0.3c1.8,0.5,3.6,1,5.5,1.5
		c1.3,0.3,2.6,0.7,4,1c0.3,0.2,0.7,0.3,1,0.5c2.3,0.5,4.6,1,6.9,1.5c0.5,0.2,1,0.3,1.5,0.5c0.7,0.2,1.3,0.3,2,0.5c1,0.2,2,0.4,3,0.7
		c1.3,0.5,2.6,1,4,1.4c0,1.5,0,3,0,4.4c-0.3,0.2-0.6,0.4-0.8,0.6c0.3,0.3,0.6,0.6,0.9,0.8c0,0.3,0,0.7,0,1c-0.3,0.4-0.9,0.8-0.9,1.2
		c-0.1,3.2-0.1,6.5,0,9.8c0,0.3,0.6,0.6,0.9,0.9c0.1,0.8,0.2,1.6,0.3,2.5c0,0.7,0.1,1.3,0.1,2c0.4,3.5,2.2,6.2,5,8.4
		c0.8,0.7,1.7,1.3,2.5,2c0.8,0.5,1.7,0.9,2.5,1.4c0.3,0.1,0.7,0.1,1,0.2c1.8,0.3,3.6,0.7,5.5,1c1.3,2,5.2,1.9,6.9-0.1
		c4.8,0,9.6,0,14.4,0c1.6,2,6.4,2.1,8.4,0.2c3-1,6.3-1.6,8.9-3.2c3.5-2.1,6.3-5.2,6.4-9.7c0.2-1.3,0.5-2.5,0.6-3.8
		c0.1-5.8,0.1-11.6,0.1-17.4c1.5-0.5,3.4-0.5,3.4-2.9c4.8-1.2,9.6-2.3,14.4-3.5c6.7-1.7,13.5-3.2,20.2-5.2
		c5.3-1.6,10.5-3.7,15.8-5.6c6.2-2.3,12.4-4.5,18.5-7c6.6-2.7,13.1-5.4,19.5-8.4c8-3.8,15.9-7.9,23.7-12c7.5-4,14.9-8.3,22.4-12.5
		c0.2,0.2,0.3,0.5,0.5,0.7c0.2-0.5,0.3-0.9,0.5-1.4c1.2-0.8,2.3-1.5,3.5-2.3c0.5,0.3,0.9,0.6,1.4,0.9c0,1.6,0.1,3.3,0.1,4.9
		c0,0.5,0,1,0,1.5c0,39.5,0,79,0,118.4c0,0.5,0,1,0,1.5c-0.2,0.8-0.5,1.5-0.5,2.3c0,6-3,10.4-7.5,13.9c-1.3,0.7-2.6,1.4-3.9,2
		c-1.3-0.8-2.4-0.7-3,0.9c-0.2,0-0.3,0-0.5,0c-0.8-2.1-2.6-1.9-4.4-1.9c-100.4,0-200.8,0-301.2,0c-0.7,0-1.4-0.2-2,0.1
		c-0.7,0.3-1.4,0.9-2,1.4c0,0.1,0,0.3-0.1,0.4c-0.3,0-0.6,0-0.9,0c-0.8-1.4-1.7-1.4-2.5,0c-0.7,0-1.3,0-2,0c-1.4-2.4-3.5-2.4-5,0.1
		c-2.9-0.5-5.5-1.7-7.5-3.9c-0.5-0.4-1-0.7-1.5-1.1c-2.5-2.5-4.3-5.3-4.8-8.9c0.6-0.8,1.1-1.5,1.7-2.3C1.9,430.2,0.9,429.6,0,429z"
		/>
	
		<linearGradient id="SVGID_00000154398478334230458140000011406238383512185266_" gradientUnits="userSpaceOnUse" x1="102.6166" y1="-109.0244" x2="605.8076" y2="390.9306">
		<stop  offset="0" style="stop-color:#7900FF"/>
		<stop  offset="1" style="stop-color:#BC7DFF"/>
	</linearGradient>
	<path style="fill:url(#SVGID_00000154398478334230458140000011406238383512185266_);" d="M512,205.4c0,0.7,0,1.3,0,2
		c-2.3,1-2.8,3.9-1.1,5.9c0,1.6,0.1,3.3,0.1,4.9c-1.1,0.8-1.9,1.7-0.6,3c0,0.3,0,0.7,0,1c-0.1,0-0.2,0.1-0.2,0.1
		c0,0.1,0.1,0.2,0.1,0.3c0,0.5,0,1,0,1.5c-0.1,0-0.2,0.1-0.2,0.1c0,0.1,0.1,0.2,0.2,0.3c0,0.5,0,1,0,1.5c-0.1,0-0.2,0.1-0.2,0.1
		c0,0.1,0.1,0.2,0.2,0.4c0.1,0.1,0.1,0.2,0.2,0.4c-0.3,4.2-0.8,8.4-3.6,11.9c-0.5,0.6-1,1.3-1.5,1.9c-0.5,0.4-1,0.7-1.5,1.1
		c-0.2,0.2-0.3,0.3-0.5,0.5c-3,1.2-5.9,2.4-8.9,3.6c-1.4,0.1-2.9,0.4-4.3,0.3c-4-0.1-8-0.3-12-0.4c-0.8-0.5-1.6-1.4-2.3-1.4
		c-2.5-0.1-5,0.2-7.5,0.4c-1,0-2.3-0.2-1.1,1.5c-2.7,8.6-6.5,16.8-11.7,24.3c0.8,0.7,1.5,1.3,2.2,1.9c0.5,0.5,1,1,1.5,1.4
		c0.6,0.8,1.3,1.6,1.9,2.4c0.5,0.5,1,1,1.5,1.5l0,0c0.7,0.7,1.3,1.3,2,2c0.5,0.5,0.9,1,1.4,1.5c0.4,0.5,0.7,1,1.1,1.5
		c1.7,1.8,3.3,3.6,5,5.4c1,1.6,2,3.3,2.9,4.9c0.4,2,0.9,4.1,1,6.1c0.2,4.9-1.8,9.1-5.1,12.6c-2.3,2.4-4.8,4.6-7.3,6.9
		c-1.1,0.9-2.2,1.8-3.3,2.7c-4.1,3.4-7.6,7.7-13,9.3c-1,0.3-2,0.6-3,0.9c-6.7,0.6-12.1-1.9-16.5-6.9c-1.4-1.6-2.9-3.1-4.3-4.6
		c-0.7-0.6-1.3-1.3-2-1.9c-0.6-0.7-1.1-1.4-1.7-2.1c-0.3-0.3-0.6-0.6-0.8-0.9c-1.5-1.8-3-3.6-4.5-5.3c-0.2-0.3-0.3-0.6-0.5-0.9
		c-0.2,0.2-0.3,0.5-0.5,0.7c-0.5,0.2-1,0.4-1.5,0.7c-0.5,0.3-1,0.6-1.5,0.9c-0.2,0-0.3,0.1-0.5,0.1c-0.2,0.1-0.3,0.3-0.5,0.4
		c-7.3,3.2-14.7,6.3-22.7,8c0-17.8,0-35.4,0-52.9c0.5-0.8,0.9-1.7,1.4-2.5c2.8-1.6,5.6-3.3,8.4-4.9c0.2-0.1,0.4-0.3,0.6-0.4
		c0.5-0.4,1-0.7,1.4-1.1c0.2-0.1,0.4-0.2,0.6-0.4c2.3-2,4.6-4,6.9-6.1c0.7-0.8,1.4-1.5,2.1-2.3c2.3-3.3,4.9-6.4,6.9-9.8
		c3.5-5.8,5.7-12.1,6.5-18.9c0.2-4.6,0.6-9.1,0.7-13.7c0-1.7-0.5-3.4-0.7-5.1c-1-4.1-2-8.2-3.1-12.3c-0.3-0.8-0.7-1.5-1-2.3
		c-0.6-1.2-1.2-2.4-1.8-3.6c-0.5-0.8-1-1.6-1.5-2.5c-0.4-0.7-0.7-1.3-1.1-2c-0.3-0.5-0.6-1-0.9-1.5c-3.2-3.6-6.3-7.1-9.5-10.7
		c-0.5-0.4-1-0.8-1.4-1.1c-0.7-0.6-1.4-1.2-2-1.8c-0.3-0.2-0.6-0.5-1-0.7c-0.5-0.3-1-0.6-1.5-0.9c-2.8-1.6-5.6-3.2-8.5-4.8
		c-0.3-0.1-0.6-0.1-0.9-0.3c-5.3-2.3-10.7-4-16.5-4.7c-0.5,0-1-0.1-1.5-0.1c-0.4-0.2-0.9-0.4-1.3-0.4c-3.9,0-7.8,0-11.6,0.1
		c-5.1,1.3-10.3,2.5-15.4,3.8c-2.8,1.2-5.6,2.4-8.4,3.7c-0.2,0.1-0.4,0.2-0.6,0.4c-2.3,1.6-4.6,3.2-6.9,4.9
		c-2.2,2.1-4.3,4.2-6.5,6.3c-1,0.9-1.9,1.8-2.9,2.7c-1.3,0-2.6,0-4,0c-1,0-2-0.1-3-0.1c-19.2,0-38.4,0-57.5-0.1
		c1.4-3.9,2.5-8,4.3-11.8c2.3-4.7,5.1-9.2,7.7-13.8c0.1,0,0.3,0,0.4,0c0.2-0.2,0.3-0.3,0.5-0.5c1.5-2.7-1.1-3.6-2.4-4.9
		c-0.7-0.8-1.4-1.6-2-2.4c-1.3-1.3-2.6-2.7-3.9-4c-2.5-3.2-5-6.3-6-10.3c-0.2-1.5-0.3-3-0.5-4.4c0.8-5.5,3.7-9.9,7.6-13.8
		c0.1-0.1,0.3-0.3,0.4-0.4c0.7-0.5,1.3-1,2-1.6c0.3-0.3,0.7-0.5,1-0.8c4.2-3.8,8.3-7.7,12.5-11.5c3.9-2.4,8.2-3.5,12.8-3
		c0.5,0,1-0.3,1.5-0.5c0.7,0.3,1.3,0.7,2,1c2.3,1.4,4.6,2.7,6.9,4.1c2.6,3,5.2,6,7.9,8.9c1.4,1.5,3,2.9,4.5,4.3c0.4,0,0.9,0.1,1.2,0
		c4.2-1.7,8.5-3.5,12.7-5.3c0.5-0.2,1-0.4,1.5-0.5c4-1,7.9-2,11.9-3.1c4.5-0.5,4.5-0.5,4.5-4.9c0-0.5-0.1-1-0.1-1.5
		c0.2-2,0.3-3.9,0.5-5.9c0-2.5,0.1-4.9,0.1-7.4c1.2-2.6,1-5.5,3-8c3.9-4.9,8.8-7.3,14.9-7.8c0.8,0,1.7,0,2.5,0
		c0.9,0.2,1.9,0.5,2.8,0.5c5,0.2,10,0,14.9,0.7c3,0.4,6.1-0.3,9,1.5c4.3,2.7,8.3,5.7,9.4,10.8c0.8,4,0.8,8.2,1.2,12.2
		c-0.2,1.5-0.3,3-0.5,4.4c-0.2,2.3-0.4,4.7-0.6,7c-0.1,1.6,0.3,2.8,1.9,3.4c1,0.4,2,0.9,3,1.4c5.5,2.8,11.1,5.6,16.6,8.3
		c2.5,1.2,4.8,3.9,7.8,1.1c4.8-4.3,9.5-8.6,14.3-12.9c0.3-0.2,0.7-0.3,1-0.5c3.4-2,7-3.4,11.1-3c1.3,0.1,2.5,0.3,3.8,0.4
		c0.5,0.2,1,0.3,1.5,0.5c1.1,0.6,2.5,0.9,3.4,1.8c3.1,2.9,6,5.8,8.9,8.9c3.3,3.5,6.6,7,9.7,10.7c4.3,5,5.3,10.6,3.4,17
		c-1.2,4-4,6.7-6.6,9.6c-0.7,0.5-1.3,1-2,1.5c-4,3.6-7.9,7.2-11.9,10.7c-1.1,1-1.1,1.9-0.5,3.2c3.4,7.1,6,14.4,7.5,22.2
		c0.2,0.9,0.9,2.3,1.5,2.4c2.6,0.6,5.3,0.9,7.9,1.1c4.2,0.3,8.4,0.3,12.5,0.5c1.9,0.1,3.9,0.4,5.8,0.8c4.7,1,8,4,10.8,7.6
		c0.4,0.8,0.8,1.6,1.1,2.5c0.1,1.1,0.3,2.3,0.4,3.4c-0.3,0.4-0.6,0.8-0.8,1.3c0.6,0.2,1.3,0.5,1.9,0.7l0.2-0.1L512,205.4z"/>
	
		<linearGradient id="SVGID_00000111892664320842445380000007903739217865132207_" gradientUnits="userSpaceOnUse" x1="-140.0413" y1="135.2041" x2="363.1497" y2="635.1591">
		<stop  offset="0" style="stop-color:#7900FF"/>
		<stop  offset="1" style="stop-color:#BC7DFF"/>
	</linearGradient>
	<path style="fill:url(#SVGID_00000111892664320842445380000007903739217865132207_);" d="M19.8,446.8c0.7,0,1.3,0,2,0
		c0.8,0,1.6,0,2.5,0c0.3,0,0.6,0,0.9,0c0.2,0,0.4,0,0.6,0c1.3-0.1,2.6-0.3,3.9-0.3c39.9,0,79.9,0,119.8,0c60.6,0,121.2,0,181.8,0
		c0,0.6,0.1,1.3,0.1,1.9c-0.7,0-1.3,0-2,0c-0.7-0.3-1.4-0.9-2.1-0.9c-3.9-0.1-7.9,0-11.8,0c-0.7,0-1.3,0-2,0
		c-0.9,0.1-1.7,0.2-2.6,0.3c-0.1,0.2-0.3,0.4-0.4,0.6c-0.3,0-0.7,0-1,0c-0.6-0.3-1.2-0.9-1.8-0.9c-20.6,0-41.1,0-61.7,0
		c-2.6,0-5.3,0-7.9,0c-2,0-4,0-6,0c-1.5,0-3,0-4.5,0c-1,0-2-0.1-3-0.1c-41.5,0-83.1,0-124.6,0c-20.2,0-40.3,0-60.5,0.1
		c-0.1,0-0.3,0-0.4,0c-0.3,0-0.7,0-1,0c-0.2,0-0.3,0-0.5,0c-1.8,0-3.6-0.1-5.4,0c-0.4,0-0.7,0.6-1,0.9c-0.2,0-0.3,0-0.5,0
		c-0.2-0.2-0.4-0.4-0.5-0.6c-0.3,0.2-0.6,0.4-0.9,0.6c-0.3,0-0.7,0-1,0c-0.7-0.3-1.3-0.6-2-0.9c-1,0.3-2,0.6-3,0.9
		c-2.1,0-4.3,0-6.4,0c0-0.3,0-0.6-0.1-0.9C17.8,447.2,18.8,447,19.8,446.8z"/>
	
		<linearGradient id="SVGID_00000124880665744056185740000006804440150028093601_" gradientUnits="userSpaceOnUse" x1="-160.6041" y1="155.8999" x2="342.5869" y2="655.855">
		<stop  offset="0" style="stop-color:#7900FF"/>
		<stop  offset="1" style="stop-color:#BC7DFF"/>
	</linearGradient>
	<path style="fill:url(#SVGID_00000124880665744056185740000006804440150028093601_);" d="M39.7,447.4c20.2,0,40.3-0.1,60.5-0.1
		c41.5,0,83.1,0,124.6,0c1,0,2,0,3,0.1c0,0.1,0,0.3,0,0.4c-0.5,0.2-1,0.3-1.5,0.5c-62.5,0-125,0-187.5,0c-0.2-0.3-0.3-0.6-0.5-0.9
		c0.3,0,0.7,0,1,0C39.4,447.4,39.5,447.4,39.7,447.4z"/>
	
		<linearGradient id="SVGID_00000082338327513991898170000001791111982499642814_" gradientUnits="userSpaceOnUse" x1="-88.8696" y1="83.7012" x2="414.3214" y2="583.6562">
		<stop  offset="0" style="stop-color:#7900FF"/>
		<stop  offset="1" style="stop-color:#BC7DFF"/>
	</linearGradient>
	<path style="fill:url(#SVGID_00000082338327513991898170000001791111982499642814_);" d="M246.1,447.4c20.6,0,41.1-0.1,61.7,0
		c0.6,0,1.2,0.6,1.8,0.9c-21,0-42,0-63,0C246.4,448,246.2,447.7,246.1,447.4z"/>
	
		<linearGradient id="SVGID_00000059301398476206961610000012476942942482183851_" gradientUnits="userSpaceOnUse" x1="-66.8113" y1="61.5001" x2="436.3797" y2="561.4551">
		<stop  offset="0" style="stop-color:#7900FF"/>
		<stop  offset="1" style="stop-color:#BC7DFF"/>
	</linearGradient>
	<path style="fill:url(#SVGID_00000059301398476206961610000012476942942482183851_);" d="M315.5,447.4c3.9,0,7.9-0.1,11.8,0
		c0.7,0,1.4,0.6,2.1,0.9c-4.6,0-9.3,0-13.9,0C315.5,448,315.5,447.7,315.5,447.4z"/>
	
		<linearGradient id="SVGID_00000006678956840436714310000001914489988259741372_" gradientUnits="userSpaceOnUse" x1="143.8329" y1="-150.5075" x2="647.0239" y2="349.4476">
		<stop  offset="0" style="stop-color:#7900FF"/>
		<stop  offset="1" style="stop-color:#BC7DFF"/>
	</linearGradient>
	<path style="fill:url(#SVGID_00000006678956840436714310000001914489988259741372_);" d="M511,218.3c0-1.6-0.1-3.3-0.1-4.9
		c0.4-1.5,0.8-3,1.1-4.4c0,3.9,0,7.9,0,11.8c-0.3,0-0.7-0.1-1-0.1C511,219.9,511,219.1,511,218.3z"/>
	
		<linearGradient id="SVGID_00000037685723101671272180000002603236560701491091_" gradientUnits="userSpaceOnUse" x1="-217.8531" y1="213.5195" x2="285.3379" y2="713.4746">
		<stop  offset="0" style="stop-color:#7900FF"/>
		<stop  offset="1" style="stop-color:#BC7DFF"/>
	</linearGradient>
	<path style="fill:url(#SVGID_00000037685723101671272180000002603236560701491091_);" d="M1.1,433c-0.4-0.3-0.7-0.7-1.1-1
		c0-1,0-2,0-3c0.9,0.6,1.9,1.1,2.8,1.7C2.2,431.5,1.7,432.2,1.1,433z"/>
	
		<linearGradient id="SVGID_00000112615811513782438870000005448419197679489197_" gradientUnits="userSpaceOnUse" x1="-106.3846" y1="101.3296" x2="396.8064" y2="601.2846">
		<stop  offset="0" style="stop-color:#7900FF"/>
		<stop  offset="1" style="stop-color:#BC7DFF"/>
	</linearGradient>
	<path style="fill:url(#SVGID_00000112615811513782438870000005448419197679489197_);" d="M246.1,447.4c0.2,0.3,0.3,0.6,0.5,0.9
		c-2.6,0-5.3,0-7.9,0c-0.2-0.3-0.3-0.6-0.5-0.9C240.8,447.4,243.4,447.4,246.1,447.4z"/>
	
		<linearGradient id="SVGID_00000020396145342362940400000007496865588908004245_" gradientUnits="userSpaceOnUse" x1="146.0106" y1="-152.6993" x2="649.2016" y2="347.2557">
		<stop  offset="0" style="stop-color:#7900FF"/>
		<stop  offset="1" style="stop-color:#BC7DFF"/>
	</linearGradient>
	<path style="fill:url(#SVGID_00000020396145342362940400000007496865588908004245_);" d="M512,208.9c-0.4,1.5-0.8,3-1.1,4.4
		c-1.7-2-1.2-4.9,1.1-5.9C512,207.9,512,208.4,512,208.9z"/>
	
		<linearGradient id="SVGID_00000108282423383045257030000017582402547025037459_" gradientUnits="userSpaceOnUse" x1="-209.6501" y1="205.2634" x2="293.5409" y2="705.2184">
		<stop  offset="0" style="stop-color:#7900FF"/>
		<stop  offset="1" style="stop-color:#BC7DFF"/>
	</linearGradient>
	<path style="fill:url(#SVGID_00000108282423383045257030000017582402547025037459_);" d="M31.3,448.3c0.3-0.3,0.7-0.9,1-0.9
		c1.8-0.1,3.6,0,5.4,0c0,0.3,0,0.6,0,0.9c-1.7,0-3.3,0-5,0c-0.2,0-0.3,0-0.5,0C31.9,448.3,31.6,448.3,31.3,448.3z"/>
	
		<linearGradient id="SVGID_00000034079172314175087510000018006523148444547246_" gradientUnits="userSpaceOnUse" x1="-109.8276" y1="104.7948" x2="393.3634" y2="604.7499">
		<stop  offset="0" style="stop-color:#7900FF"/>
		<stop  offset="1" style="stop-color:#BC7DFF"/>
	</linearGradient>
	<path style="fill:url(#SVGID_00000034079172314175087510000018006523148444547246_);" d="M238.2,447.4c0.2,0.3,0.3,0.6,0.5,0.9
		c-0.3,0-0.7,0-1,0c-0.5,0-1,0-1.5,0c-1.2,0-2.3,0-3.5,0c-0.2-0.3-0.3-0.6-0.5-0.9C234.2,447.4,236.2,447.4,238.2,447.4z"/>
	
		<linearGradient id="SVGID_00000067919345533115376220000005314892747613501114_" gradientUnits="userSpaceOnUse" x1="-112.4229" y1="107.4069" x2="390.7682" y2="607.3619">
		<stop  offset="0" style="stop-color:#7900FF"/>
		<stop  offset="1" style="stop-color:#BC7DFF"/>
	</linearGradient>
	<path style="fill:url(#SVGID_00000067919345533115376220000005314892747613501114_);" d="M232.2,447.4c0.2,0.3,0.3,0.6,0.5,0.9
		c-1.3,0-2.6,0-4,0c-0.3-0.2-0.7-0.3-1-0.5c0-0.1,0-0.3,0-0.4C229.2,447.4,230.7,447.4,232.2,447.4z"/>
	
		<linearGradient id="SVGID_00000103243448669009244270000015624794873184677009_" gradientUnits="userSpaceOnUse" x1="-214.4654" y1="210.1099" x2="288.7256" y2="710.0649">
		<stop  offset="0" style="stop-color:#7900FF"/>
		<stop  offset="1" style="stop-color:#BC7DFF"/>
	</linearGradient>
	<path style="fill:url(#SVGID_00000103243448669009244270000015624794873184677009_);" d="M23.3,448.3c1-0.3,2-0.6,3-0.9
		c0,0.3,0,0.6,0,0.9C25.3,448.3,24.3,448.3,23.3,448.3z"/>
	
		<linearGradient id="SVGID_00000037673429244697790370000014065951205638129845_" gradientUnits="userSpaceOnUse" x1="-61.7671" y1="56.4232" x2="441.4239" y2="556.3783">
		<stop  offset="0" style="stop-color:#7900FF"/>
		<stop  offset="1" style="stop-color:#BC7DFF"/>
	</linearGradient>
	<path style="fill:url(#SVGID_00000037673429244697790370000014065951205638129845_);" d="M332.9,447.4c0,0.3,0,0.6,0,0.9
		c-0.5,0-1,0-1.5,0c0-0.6-0.1-1.3-0.1-1.9C331.9,446.7,332.4,447,332.9,447.4z"/>
	
		<linearGradient id="SVGID_00000077301832720264570840000011794652226257454226_" gradientUnits="userSpaceOnUse" x1="-71.6329" y1="66.3529" x2="431.5581" y2="566.308">
		<stop  offset="0" style="stop-color:#7900FF"/>
		<stop  offset="1" style="stop-color:#BC7DFF"/>
	</linearGradient>
	<path style="fill:url(#SVGID_00000077301832720264570840000011794652226257454226_);" d="M311,447.6c0.9-0.1,1.7-0.2,2.6-0.3
		c0.2,0.3,0.3,0.6,0.5,0.9c-1,0-2,0-3,0C311,448.1,311,447.9,311,447.6z"/>
	
		<linearGradient id="SVGID_00000006688464522083692220000017285853300099259537_" gradientUnits="userSpaceOnUse" x1="-112.2534" y1="107.2364" x2="390.9376" y2="607.1914">
		<stop  offset="0" style="stop-color:#7900FF"/>
		<stop  offset="1" style="stop-color:#BC7DFF"/>
	</linearGradient>
	<path style="fill:url(#SVGID_00000006688464522083692220000017285853300099259537_);" d="M0,217.3c1.1,2.3,1.1,2.3,0,3
		C0,219.3,0,218.3,0,217.3z"/>
	
		<linearGradient id="SVGID_00000064345168882523538020000018050607952719127182_" gradientUnits="userSpaceOnUse" x1="-213.456" y1="209.0939" x2="289.735" y2="709.049">
		<stop  offset="0" style="stop-color:#7900FF"/>
		<stop  offset="1" style="stop-color:#BC7DFF"/>
	</linearGradient>
	<path style="fill:url(#SVGID_00000064345168882523538020000018050607952719127182_);" d="M26.3,448.3c0-0.3,0-0.6,0-0.9
		c0.7,0.3,1.3,0.6,2,0.9C27.6,448.3,27,448.3,26.3,448.3z"/>
	
		<linearGradient id="SVGID_00000141437321441328053420000007540490904601853828_" gradientUnits="userSpaceOnUse" x1="-70.3989" y1="65.1109" x2="432.7921" y2="565.0659">
		<stop  offset="0" style="stop-color:#7900FF"/>
		<stop  offset="1" style="stop-color:#BC7DFF"/>
	</linearGradient>
	<path style="fill:url(#SVGID_00000141437321441328053420000007540490904601853828_);" d="M314,448.3c-0.2-0.3-0.3-0.6-0.5-0.9
		c0.7,0,1.3,0,2,0c0,0.3,0,0.6,0,0.9C315,448.3,314.5,448.3,314,448.3z"/>
	
		<linearGradient id="SVGID_00000122680785128824582210000008666644654050693276_" gradientUnits="userSpaceOnUse" x1="-109.3259" y1="104.2899" x2="393.8651" y2="604.2449">
		<stop  offset="0" style="stop-color:#7900FF"/>
		<stop  offset="1" style="stop-color:#BC7DFF"/>
	</linearGradient>
	<path style="fill:url(#SVGID_00000122680785128824582210000008666644654050693276_);" d="M236.2,448.3c0.5,0,1,0,1.5,0
		C237.1,448.3,236.7,448.3,236.2,448.3z"/>
	
		<linearGradient id="SVGID_00000047770523695542105690000004394530182866781085_" gradientUnits="userSpaceOnUse" x1="-114.1318" y1="109.1268" x2="389.0592" y2="609.0819">
		<stop  offset="0" style="stop-color:#7900FF"/>
		<stop  offset="1" style="stop-color:#BC7DFF"/>
	</linearGradient>
	<path style="fill:url(#SVGID_00000047770523695542105690000004394530182866781085_);" d="M226.2,448.3c0.5-0.2,1-0.3,1.5-0.5
		c0,0.2,0,0.3,0,0.5C227.2,448.3,226.7,448.3,226.2,448.3z"/>
	
		<linearGradient id="SVGID_00000137101804944984054970000010838364358888517565_" gradientUnits="userSpaceOnUse" x1="-207.9296" y1="203.5318" x2="295.2614" y2="703.4868">
		<stop  offset="0" style="stop-color:#7900FF"/>
		<stop  offset="1" style="stop-color:#BC7DFF"/>
	</linearGradient>
	<path style="fill:url(#SVGID_00000137101804944984054970000010838364358888517565_);" d="M37.7,448.3c0-0.3,0-0.6,0-0.9
		c0.2,0,0.3,0,0.5,0c0.2,0.3,0.3,0.6,0.5,0.9C38.4,448.3,38,448.3,37.7,448.3z"/>
	
		<linearGradient id="SVGID_00000036244741583520348690000004143907793998162577_" gradientUnits="userSpaceOnUse" x1="-113.639" y1="108.6309" x2="389.552" y2="608.5859">
		<stop  offset="0" style="stop-color:#7900FF"/>
		<stop  offset="1" style="stop-color:#BC7DFF"/>
	</linearGradient>
	<path style="fill:url(#SVGID_00000036244741583520348690000004143907793998162577_);" d="M227.7,448.3c0-0.2,0-0.3,0-0.5
		c0.3,0.2,0.7,0.3,1,0.5C228.4,448.3,228.1,448.3,227.7,448.3z"/>
	
		<linearGradient id="SVGID_00000016796136431816718250000016982917301344757643_" gradientUnits="userSpaceOnUse" x1="-212.0919" y1="207.721" x2="291.0991" y2="707.6761">
		<stop  offset="0" style="stop-color:#7900FF"/>
		<stop  offset="1" style="stop-color:#BC7DFF"/>
	</linearGradient>
	<path style="fill:url(#SVGID_00000016796136431816718250000016982917301344757643_);" d="M29.3,448.3c0.3-0.2,0.6-0.4,1-0.6
		c0,0.2,0,0.4,0,0.6C29.9,448.3,29.6,448.3,29.3,448.3z"/>
	
		<linearGradient id="SVGID_00000057842261439311543760000014568569706128048800_" gradientUnits="userSpaceOnUse" x1="-211.8455" y1="207.473" x2="291.3456" y2="707.428">
		<stop  offset="0" style="stop-color:#7900FF"/>
		<stop  offset="1" style="stop-color:#BC7DFF"/>
	</linearGradient>
	<path style="fill:url(#SVGID_00000057842261439311543760000014568569706128048800_);" d="M30.3,448.3c0-0.2,0-0.4,0-0.6
		c0.2,0.2,0.4,0.4,0.5,0.6C30.6,448.3,30.4,448.3,30.3,448.3z"/>
	
		<linearGradient id="SVGID_00000033327426837452510110000013351933707246853013_" gradientUnits="userSpaceOnUse" x1="-210.8681" y1="206.4893" x2="292.3229" y2="706.4444">
		<stop  offset="0" style="stop-color:#7900FF"/>
		<stop  offset="1" style="stop-color:#BC7DFF"/>
	</linearGradient>
	<path style="fill:url(#SVGID_00000033327426837452510110000013351933707246853013_);" d="M32.2,448.3c0.2,0,0.3,0,0.5,0
		C32.6,448.3,32.4,448.3,32.2,448.3z"/>
	
		<linearGradient id="SVGID_00000080922929742885126960000018109508635007291069_" gradientUnits="userSpaceOnUse" x1="-72.4678" y1="67.1932" x2="430.7232" y2="567.1483">
		<stop  offset="0" style="stop-color:#7900FF"/>
		<stop  offset="1" style="stop-color:#BC7DFF"/>
	</linearGradient>
	<path style="fill:url(#SVGID_00000080922929742885126960000018109508635007291069_);" d="M311,447.6c0,0.2,0.1,0.4,0.1,0.6
		c-0.2,0-0.3,0-0.5,0C310.7,448.1,310.8,447.9,311,447.6z"/>
	
		<linearGradient id="SVGID_00000177444247279893098810000005485778524962630025_" gradientUnits="userSpaceOnUse" x1="-96.6549" y1="91.5368" x2="406.5361" y2="591.4919">
		<stop  offset="0" style="stop-color:#7900FF"/>
		<stop  offset="1" style="stop-color:#BC7DFF"/>
	</linearGradient>
	<path style="fill:url(#SVGID_00000177444247279893098810000005485778524962630025_);" d="M143.8,329.3c0,0.7,0,1.3,0,2
		C142.5,330.6,142.5,330,143.8,329.3z"/>
	
		<linearGradient id="SVGID_00000057868577326180346870000017328607901822047156_" gradientUnits="userSpaceOnUse" x1="18.6179" y1="-24.4821" x2="521.809" y2="475.473">
		<stop  offset="0" style="stop-color:#7900FF"/>
		<stop  offset="1" style="stop-color:#BC7DFF"/>
	</linearGradient>
	<path style="fill:url(#SVGID_00000057868577326180346870000017328607901822047156_);" d="M329.9,283.4c-0.5,0.4-1,0.9-1.5,1.3
		C328.9,284.3,329.4,283.9,329.9,283.4z"/>
	
		<linearGradient id="SVGID_00000099620424973905207240000012415600262616710305_" gradientUnits="userSpaceOnUse" x1="-35.281" y1="29.7657" x2="467.91" y2="529.7208">
		<stop  offset="0" style="stop-color:#7900FF"/>
		<stop  offset="1" style="stop-color:#BC7DFF"/>
	</linearGradient>
	<path style="fill:url(#SVGID_00000099620424973905207240000012415600262616710305_);" d="M257,319c-0.5,0.3-1,0.6-1.5,0.9
		C256,319.6,256.5,319.3,257,319z"/>
	
		<linearGradient id="SVGID_00000102528271226858949190000013991372149414714800_" gradientUnits="userSpaceOnUse" x1="-94.676" y1="89.5452" x2="408.515" y2="589.5002">
		<stop  offset="0" style="stop-color:#7900FF"/>
		<stop  offset="1" style="stop-color:#BC7DFF"/>
	</linearGradient>
	<path style="fill:url(#SVGID_00000102528271226858949190000013991372149414714800_);" d="M143.8,325.9c0,0.3,0,0.7,0,1
		c-0.2-0.2-0.5-0.3-0.7-0.5C143.3,326.2,143.6,326,143.8,325.9z"/>
	
		<linearGradient id="SVGID_00000052786743906943089170000009260809455625085074_" gradientUnits="userSpaceOnUse" x1="30.4444" y1="-36.3851" x2="533.6354" y2="463.57">
		<stop  offset="0" style="stop-color:#7900FF"/>
		<stop  offset="1" style="stop-color:#BC7DFF"/>
	</linearGradient>
	<path style="fill:url(#SVGID_00000052786743906943089170000009260809455625085074_);" d="M344.3,274.6c0,0.3-0.1,0.6-0.1,0.9
		c-0.3,0-0.6-0.1-0.9-0.1C343.7,275.1,344,274.8,344.3,274.6z"/>
	
		<linearGradient id="SVGID_00000094608490935730367720000002411314840218184871_" gradientUnits="userSpaceOnUse" x1="295.0587" y1="281.3449" x2="323.5147" y2="309.6179">
		<stop  offset="0" style="stop-color:#7900FF"/>
		<stop  offset="1" style="stop-color:#BC7DFF"/>
	</linearGradient>
	<path style="fill:url(#SVGID_00000094608490935730367720000002411314840218184871_);" d="M309.5,295.3c-0.1,0.1-0.3,0.3-0.4,0.4
		C309.2,295.6,309.4,295.4,309.5,295.3z"/>
	
		<linearGradient id="SVGID_00000169558803448919926230000014174803245234491523_" gradientUnits="userSpaceOnUse" x1="-136.5621" y1="131.7023" x2="366.6289" y2="631.6574">
		<stop  offset="0" style="stop-color:#7900FF"/>
		<stop  offset="1" style="stop-color:#BC7DFF"/>
	</linearGradient>
	<path style="fill:url(#SVGID_00000169558803448919926230000014174803245234491523_);" d="M332.9,447.4c-0.5-0.3-1.1-0.7-1.6-1
		c-60.6,0-121.2,0-181.8,0c-39.9,0-79.9,0-119.8,0c-1.3,0-2.6,0.2-3.9,0.3c-0.2-0.1-0.4-0.3-0.5-0.4c0.7-0.5,1.3-1.1,2-1.4
		c0.6-0.2,1.3-0.1,2-0.1c100.4,0,200.8,0,301.2,0c1.8,0,3.6-0.2,4.4,1.9C334.2,446.9,333.6,447.1,332.9,447.4z"/>
	
		<linearGradient id="SVGID_00000078036041586413119780000017332628316472119937_" gradientUnits="userSpaceOnUse" x1="-117.0814" y1="112.0956" x2="386.1096" y2="612.0506">
		<stop  offset="0" style="stop-color:#7900FF"/>
		<stop  offset="1" style="stop-color:#BC7DFF"/>
	</linearGradient>
	<path style="fill:url(#SVGID_00000078036041586413119780000017332628316472119937_);" d="M143.9,365.4c0,3.9,0,7.9,0,11.8
		c-0.3-0.3-0.9-0.6-0.9-0.9c-0.1-3.3-0.1-6.5,0-9.8C142.9,366.1,143.5,365.8,143.9,365.4z"/>
	
		<linearGradient id="SVGID_00000019678793836941130600000017966512535500371591_" gradientUnits="userSpaceOnUse" x1="-107.5664" y1="102.519" x2="395.6246" y2="602.4741">
		<stop  offset="0" style="stop-color:#7900FF"/>
		<stop  offset="1" style="stop-color:#BC7DFF"/>
	</linearGradient>
	<path style="fill:url(#SVGID_00000019678793836941130600000017966512535500371591_);" d="M182.1,394.4c2.8,0.1,5.6,0.1,8.4,0.2
		C188.5,396.5,183.7,396.4,182.1,394.4z"/>
	
		<linearGradient id="SVGID_00000066485219378646529000000000965454151193451710_" gradientUnits="userSpaceOnUse" x1="-118.5611" y1="113.5849" x2="384.6299" y2="613.5399">
		<stop  offset="0" style="stop-color:#7900FF"/>
		<stop  offset="1" style="stop-color:#BC7DFF"/>
	</linearGradient>
	<path style="fill:url(#SVGID_00000066485219378646529000000000965454151193451710_);" d="M160.7,394.6c2.3,0,4.6-0.1,6.9-0.1
		C166,396.5,162,396.6,160.7,394.6z"/>
	
		<linearGradient id="SVGID_00000083801641992319178520000010022963611040187008_" gradientUnits="userSpaceOnUse" x1="-217.5809" y1="213.2456" x2="285.6101" y2="713.2006">
		<stop  offset="0" style="stop-color:#7900FF"/>
		<stop  offset="1" style="stop-color:#BC7DFF"/>
	</linearGradient>
	<path style="fill:url(#SVGID_00000083801641992319178520000010022963611040187008_);" d="M16.8,447.3c-0.6-0.2-1.3-0.3-1.9-0.5
		c1.5-2.4,3.6-2.5,5-0.1C18.8,447,17.8,447.2,16.8,447.3z"/>
	
		<linearGradient id="SVGID_00000078009357651755301490000009780392283950412963_" gradientUnits="userSpaceOnUse" x1="-78.9517" y1="73.7191" x2="424.2393" y2="573.6741">
		<stop  offset="0" style="stop-color:#7900FF"/>
		<stop  offset="1" style="stop-color:#BC7DFF"/>
	</linearGradient>
	<path style="fill:url(#SVGID_00000078009357651755301490000009780392283950412963_);" d="M206.5,360.4c0.2-0.8,0.3-1.6,0.5-2.4
		c0,0,0,0,0,0c0.5-0.1,1-0.1,1.4-0.2c0.3-0.2,0.7-0.3,1-0.5c0.2,0.1,0.3,0.1,0.5,0.2C209.9,359.9,208,359.9,206.5,360.4z"/>
	
		<linearGradient id="SVGID_00000052800250021402799240000017490956699825098150_" gradientUnits="userSpaceOnUse" x1="-58.6457" y1="53.2816" x2="444.5453" y2="553.2366">
		<stop  offset="0" style="stop-color:#7900FF"/>
		<stop  offset="1" style="stop-color:#BC7DFF"/>
	</linearGradient>
	<path style="fill:url(#SVGID_00000052800250021402799240000017490956699825098150_);" d="M336.4,446.9c-0.3-0.1-0.7-0.1-1-0.2
		c0.6-1.6,1.7-1.7,3-0.9C337.7,446.2,337,446.5,336.4,446.9z"/>
	
		<linearGradient id="SVGID_00000051341252943985696590000012138294909355113606_" gradientUnits="userSpaceOnUse" x1="-214.727" y1="210.3732" x2="288.464" y2="710.3282">
		<stop  offset="0" style="stop-color:#7900FF"/>
		<stop  offset="1" style="stop-color:#BC7DFF"/>
	</linearGradient>
	<path style="fill:url(#SVGID_00000051341252943985696590000012138294909355113606_);" d="M24.3,446.7c-0.8,0-1.6,0-2.5,0
		C22.6,445.3,23.5,445.3,24.3,446.7z"/>
	
		<linearGradient id="SVGID_00000126324273771277430550000015563002474823839115_" gradientUnits="userSpaceOnUse" x1="-113.2507" y1="108.24" x2="389.9403" y2="608.1951">
		<stop  offset="0" style="stop-color:#7900FF"/>
		<stop  offset="1" style="stop-color:#BC7DFF"/>
	</linearGradient>
	<path style="fill:url(#SVGID_00000126324273771277430550000015563002474823839115_);" d="M143.8,362.9c0,0.5,0,1,0,1.5
		c-0.3-0.3-0.6-0.6-0.9-0.8C143.2,363.3,143.5,363.1,143.8,362.9z"/>
	
		<linearGradient id="SVGID_00000170266036231086978270000013382639222254690213_" gradientUnits="userSpaceOnUse" x1="17.7124" y1="-23.5707" x2="520.9034" y2="476.3844">
		<stop  offset="0" style="stop-color:#7900FF"/>
		<stop  offset="1" style="stop-color:#BC7DFF"/>
	</linearGradient>
	<path style="fill:url(#SVGID_00000170266036231086978270000013382639222254690213_);" d="M350.3,306.1c0,0.5,0,1,0,1.5
		C350.3,307.1,350.3,306.6,350.3,306.1z"/>
	
		<linearGradient id="SVGID_00000106133798707829796970000006461223855244142998_" gradientUnits="userSpaceOnUse" x1="-42.2616" y1="36.7915" x2="460.9294" y2="536.7465">
		<stop  offset="0" style="stop-color:#7900FF"/>
		<stop  offset="1" style="stop-color:#BC7DFF"/>
	</linearGradient>
	<path style="fill:url(#SVGID_00000106133798707829796970000006461223855244142998_);" d="M350.3,426.1c0,0.5,0,1,0,1.5
		C350.3,427.1,350.3,426.6,350.3,426.1z"/>
	
		<linearGradient id="SVGID_00000093887894352172501660000003224665908397114274_" gradientUnits="userSpaceOnUse" x1="-220.7777" y1="216.463" x2="282.4133" y2="716.4181">
		<stop  offset="0" style="stop-color:#7900FF"/>
		<stop  offset="1" style="stop-color:#BC7DFF"/>
	</linearGradient>
	<path style="fill:url(#SVGID_00000093887894352172501660000003224665908397114274_);" d="M7.4,443c-0.5-0.4-1-0.7-1.5-1.1
		C6.4,442.2,6.9,442.6,7.4,443z"/>
	
		<linearGradient id="SVGID_00000098204747772502903330000005104817647869384099_" gradientUnits="userSpaceOnUse" x1="16.9009" y1="-22.754" x2="520.0919" y2="477.2011">
		<stop  offset="0" style="stop-color:#7900FF"/>
		<stop  offset="1" style="stop-color:#BC7DFF"/>
	</linearGradient>
	<path style="fill:url(#SVGID_00000098204747772502903330000005104817647869384099_);" d="M344.3,303.3c0.3-0.2,0.7-0.4,1-0.7
		c-0.2,0.5-0.3,0.9-0.5,1.4C344.6,303.7,344.5,303.5,344.3,303.3z"/>
	
		<linearGradient id="SVGID_00000166663485802107875290000009586142449295858352_" gradientUnits="userSpaceOnUse" x1="20.6224" y1="-26.4995" x2="523.8134" y2="473.4556">
		<stop  offset="0" style="stop-color:#7900FF"/>
		<stop  offset="1" style="stop-color:#BC7DFF"/>
	</linearGradient>
	<path style="fill:url(#SVGID_00000166663485802107875290000009586142449295858352_);" d="M348.8,300.3c0.2-0.1,0.3-0.1,0.5-0.2
		c0.3,0,0.6,0.1,0.9,0.1c0,0.3,0,0.6,0,1C349.7,300.9,349.2,300.6,348.8,300.3z"/>
	
		<linearGradient id="SVGID_00000018202062757488014170000001743399394129382291_" gradientUnits="userSpaceOnUse" x1="-213.5491" y1="209.1876" x2="289.6419" y2="709.1427">
		<stop  offset="0" style="stop-color:#7900FF"/>
		<stop  offset="1" style="stop-color:#BC7DFF"/>
	</linearGradient>
	<path style="fill:url(#SVGID_00000018202062757488014170000001743399394129382291_);" d="M25.3,446.3c0.2,0.1,0.4,0.3,0.5,0.4
		c-0.2,0-0.4,0-0.6,0C25.3,446.6,25.3,446.5,25.3,446.3z"/>
	
		<linearGradient id="SVGID_00000126315210199353332530000011190234205964282518_" gradientUnits="userSpaceOnUse" x1="-122.2777" y1="117.3255" x2="380.9133" y2="617.2806">
		<stop  offset="0" style="stop-color:#7900FF"/>
		<stop  offset="1" style="stop-color:#BC7DFF"/>
	</linearGradient>
	<path style="fill:url(#SVGID_00000126315210199353332530000011190234205964282518_);" d="M111.1,349.6c0.1-0.1,0.2-0.2,0.3-0.4
		c0.1,0.1,0.1,0.2,0.2,0.4C111.5,349.6,111.3,349.6,111.1,349.6z"/>
	
		<linearGradient id="SVGID_00000067946196675219412600000009803445641188714139_" gradientUnits="userSpaceOnUse" x1="56.8145" y1="-62.9259" x2="560.0055" y2="437.0292">
		<stop  offset="0" style="stop-color:#7900FF"/>
		<stop  offset="1" style="stop-color:#BC7DFF"/>
	</linearGradient>
	<path style="fill:url(#SVGID_00000067946196675219412600000009803445641188714139_);" d="M387,265.2c0.5-0.2,0.9-0.4,1.4-0.6
		c-0.5,0.8-0.9,1.7-1.4,2.5C387,266.5,387,265.8,387,265.2z"/>
	
		<linearGradient id="SVGID_00000036931977567813357110000009152102260190049156_" gradientUnits="userSpaceOnUse" x1="140.9432" y1="-147.5991" x2="644.1342" y2="352.3559">
		<stop  offset="0" style="stop-color:#7900FF"/>
		<stop  offset="1" style="stop-color:#BC7DFF"/>
	</linearGradient>
	<path style="fill:url(#SVGID_00000036931977567813357110000009152102260190049156_);" d="M511,220.7c-0.2,0.2-0.4,0.4-0.6,0.6
		c-1.3-1.3-0.5-2.1,0.6-3C511,219.1,511,219.9,511,220.7z"/>
	
		<linearGradient id="SVGID_00000010989724914824017940000007369969551508451724_" gradientUnits="userSpaceOnUse" x1="148.5879" y1="-155.2933" x2="651.7789" y2="344.6617">
		<stop  offset="0" style="stop-color:#7900FF"/>
		<stop  offset="1" style="stop-color:#BC7DFF"/>
	</linearGradient>
	<path style="fill:url(#SVGID_00000010989724914824017940000007369969551508451724_);" d="M510.9,203.5c0.2,0.6,0.5,1.3,0.7,1.9
		c-0.6-0.2-1.3-0.5-1.9-0.7c0.3-0.4,0.6-0.8,0.8-1.3C510.7,203.5,510.8,203.5,510.9,203.5z"/>
	
		<linearGradient id="SVGID_00000170250337476035732790000010069384293892756621_" gradientUnits="userSpaceOnUse" x1="106.7347" y1="-113.1692" x2="609.9257" y2="386.7859">
		<stop  offset="0" style="stop-color:#7900FF"/>
		<stop  offset="1" style="stop-color:#BC7DFF"/>
	</linearGradient>
	<path style="fill:url(#SVGID_00000170250337476035732790000010069384293892756621_);" d="M468.5,245c-0.2,0.5-0.5,0.9-0.7,1.4
		c-0.1,0-0.3,0-0.4,0C466.2,244.8,467.5,245,468.5,245z"/>
	
		<linearGradient id="SVGID_00000112618421884767514950000011360447964614798742_" gradientUnits="userSpaceOnUse" x1="73.6105" y1="-79.8306" x2="576.8015" y2="420.1245">
		<stop  offset="0" style="stop-color:#7900FF"/>
		<stop  offset="1" style="stop-color:#BC7DFF"/>
	</linearGradient>
	<path style="fill:url(#SVGID_00000112618421884767514950000011360447964614798742_);" d="M259.5,105.7c0.3-0.3,0.7-0.5,1-0.8
		C260.1,105.2,259.8,105.5,259.5,105.7z"/>
	
		<linearGradient id="SVGID_00000076600963580112218120000004430738171494939820_" gradientUnits="userSpaceOnUse" x1="47.9681" y1="-54.0222" x2="551.1591" y2="445.9328">
		<stop  offset="0" style="stop-color:#7900FF"/>
		<stop  offset="1" style="stop-color:#BC7DFF"/>
	</linearGradient>
	<path style="fill:url(#SVGID_00000076600963580112218120000004430738171494939820_);" d="M414.7,310.2c-0.3-0.1-0.6-0.1-1-0.2
		c0.2-0.2,0.3-0.5,0.5-0.7C414.4,309.6,414.6,309.9,414.7,310.2z"/>
	
		<linearGradient id="SVGID_00000034065427766127921530000013897379110896909953_" gradientUnits="userSpaceOnUse" x1="255.2086" y1="139.0146" x2="273.1589" y2="156.8494">
		<stop  offset="0" style="stop-color:#7900FF"/>
		<stop  offset="1" style="stop-color:#BC7DFF"/>
	</linearGradient>
	<path style="fill:url(#SVGID_00000034065427766127921530000013897379110896909953_);" d="M263.9,148.2c0.2-0.2,0.3-0.3,0.5-0.5
		C264.3,147.8,264.1,148,263.9,148.2z"/>
	
		<linearGradient id="SVGID_00000047779210143092606460000017944942744988166274_" gradientUnits="userSpaceOnUse" x1="66.3506" y1="-72.5237" x2="569.5416" y2="427.4313">
		<stop  offset="0" style="stop-color:#7900FF"/>
		<stop  offset="1" style="stop-color:#BC7DFF"/>
	</linearGradient>
	<path style="fill:url(#SVGID_00000047779210143092606460000017944942744988166274_);" d="M398.8,258.3c0.2-0.1,0.4-0.2,0.6-0.4
		C399.2,258,399,258.1,398.8,258.3z"/>
	
		<linearGradient id="SVGID_00000162353589129059090630000005330564244683411886_" gradientUnits="userSpaceOnUse" x1="64.6269" y1="-70.7888" x2="567.8179" y2="429.1662">
		<stop  offset="0" style="stop-color:#7900FF"/>
		<stop  offset="1" style="stop-color:#BC7DFF"/>
	</linearGradient>
	<path style="fill:url(#SVGID_00000162353589129059090630000005330564244683411886_);" d="M396.8,259.7c0.2-0.1,0.4-0.3,0.6-0.4
		C397.2,259.5,397,259.6,396.8,259.7z"/>
	
		<linearGradient id="SVGID_00000087377473209028092440000010986443836271910043_" gradientUnits="userSpaceOnUse" x1="245.673" y1="95.9704" x2="268.8836" y2="119.0317">
		<stop  offset="0" style="stop-color:#7900FF"/>
		<stop  offset="1" style="stop-color:#BC7DFF"/>
	</linearGradient>
	<path style="fill:url(#SVGID_00000087377473209028092440000010986443836271910043_);" d="M257.1,107.7c0.1-0.1,0.3-0.3,0.4-0.4
		C257.3,107.4,257.2,107.6,257.1,107.7z"/>
	
		<linearGradient id="SVGID_00000018217792114935467170000007319283082373460388_" gradientUnits="userSpaceOnUse" x1="139.4463" y1="-146.0925" x2="642.6373" y2="353.8625">
		<stop  offset="0" style="stop-color:#7900FF"/>
		<stop  offset="1" style="stop-color:#BC7DFF"/>
	</linearGradient>
	<path style="fill:url(#SVGID_00000018217792114935467170000007319283082373460388_);" d="M510.4,222.2c0,0.2,0,0.3,0,0.5
		c0-0.1-0.1-0.2-0.1-0.3C510.2,222.3,510.3,222.3,510.4,222.2z"/>
	
		<linearGradient id="SVGID_00000066495351201638268530000007886138812703108255_" gradientUnits="userSpaceOnUse" x1="138.4713" y1="-145.1112" x2="641.6623" y2="354.8439">
		<stop  offset="0" style="stop-color:#7900FF"/>
		<stop  offset="1" style="stop-color:#BC7DFF"/>
	</linearGradient>
	<path style="fill:url(#SVGID_00000066495351201638268530000007886138812703108255_);" d="M510.4,224.2c0,0.2,0,0.3,0,0.5
		c-0.1-0.1-0.1-0.2-0.2-0.3C510.3,224.3,510.4,224.2,510.4,224.2z"/>
	
		<linearGradient id="SVGID_00000160152359373401055570000012489790766072037041_" gradientUnits="userSpaceOnUse" x1="137.4818" y1="-144.1153" x2="640.6728" y2="355.8398">
		<stop  offset="0" style="stop-color:#7900FF"/>
		<stop  offset="1" style="stop-color:#BC7DFF"/>
	</linearGradient>
	<path style="fill:url(#SVGID_00000160152359373401055570000012489790766072037041_);" d="M510.4,226.2c0,0.2,0,0.3,0,0.5
		c-0.1-0.1-0.1-0.2-0.2-0.4C510.3,226.3,510.4,226.2,510.4,226.2z"/>
	
		<linearGradient id="SVGID_00000120531367450327775520000009671038371472346752_" gradientUnits="userSpaceOnUse" x1="-206.9581" y1="202.5539" x2="296.2329" y2="702.509">
		<stop  offset="0" style="stop-color:#7900FF"/>
		<stop  offset="1" style="stop-color:#BC7DFF"/>
	</linearGradient>
	<path style="fill:url(#SVGID_00000120531367450327775520000009671038371472346752_);" d="M39.7,447.4c-0.1,0-0.3,0-0.4,0
		C39.4,447.3,39.5,447.3,39.7,447.4z"/>
	
		<linearGradient id="SVGID_00000140002714852100793980000008876385303366825917_" gradientUnits="userSpaceOnUse" x1="-90.1576" y1="84.9975" x2="413.0334" y2="584.9525">
		<stop  offset="0" style="stop-color:#7900FF"/>
		<stop  offset="1" style="stop-color:#BC7DFF"/>
	</linearGradient>
	<path style="fill:url(#SVGID_00000140002714852100793980000008876385303366825917_);" d="M160.7,368.8c0-14.7,0.1-29.3,0.1-44
		c0-1,0.1-2,0.1-2.9c1.6-1.1,4.5-0.4,4.9-3.3c1-0.1,2-0.1,3-0.2c3.8,0,7.6,0,11.4,0c1.8,0.1,3.6,0.1,5.5,0.2c0.3,2,1.4,3.1,3.4,3.3
		c0.1,17.2,0.3,34.5,0.4,51.7c-0.4,1.5-1.5,1.6-2.8,1.6c-7.6,0-15.2,0-22.8,0.1c-0.8,0-1.6-0.1-2.5-0.1c-0.2-1-0.4-1.9-0.6-2.9
		C160.7,371.1,160.7,370,160.7,368.8z"/>
	
		<linearGradient id="SVGID_00000124126585718410736530000006771519434998977673_" gradientUnits="userSpaceOnUse" x1="-81.9451" y1="76.7318" x2="421.2459" y2="576.6869">
		<stop  offset="0" style="stop-color:#7900FF"/>
		<stop  offset="1" style="stop-color:#BC7DFF"/>
	</linearGradient>
	<path style="fill:url(#SVGID_00000124126585718410736530000006771519434998977673_);" d="M160.8,319c1.6-0.1,3.3-0.3,4.9-0.4
		c-0.4,2.9-3.2,2.2-4.9,3.3l-0.2,0.1c0-0.8,0-1.7,0-2.5C160.7,319.3,160.8,319.1,160.8,319z"/>
	
		<linearGradient id="SVGID_00000109026017533471100470000006599074019304307076_" gradientUnits="userSpaceOnUse" x1="-69.53" y1="64.2363" x2="433.661" y2="564.1914">
		<stop  offset="0" style="stop-color:#7900FF"/>
		<stop  offset="1" style="stop-color:#BC7DFF"/>
	</linearGradient>
	<path style="fill:url(#SVGID_00000109026017533471100470000006599074019304307076_);" d="M185.5,318.6c0.2,0,0.5-0.1,0.7-0.1
		c3.2,0,3.3,0.1,2.7,3.4C186.9,321.7,185.8,320.6,185.5,318.6z"/>
</g>
</svg>
