<?xml version="1.0" encoding="utf-8"?>
<!-- Generator: Adobe Illustrator 27.6.1, SVG Export Plug-In . SVG Version: 6.00 Build 0)  -->
<svg version="1.1" id="Layer_1" xmlns="http://www.w3.org/2000/svg" xmlns:xlink="http://www.w3.org/1999/xlink" x="0px" y="0px"
	 viewBox="0 0 24 24" style="enable-background:new 0 0 24 24;" xml:space="preserve">
<style type="text/css">
	.st0{fill:url(#SVGID_1_);}
</style>
<linearGradient id="SVGID_1_" gradientUnits="userSpaceOnUse" x1="1.2052" y1="-1.3212" x2="24.9355" y2="22.3417">
	<stop  offset="0" style="stop-color:#7900FF"/>
	<stop  offset="1" style="stop-color:#BC7DFF"/>
</linearGradient>
<path class="st0" d="M11.7,14V0h10.7v2.7h-8v16c0,2.9-2.4,5.3-5.3,5.3c-2.9,0-5.3-2.4-5.3-5.3s2.4-5.3,5.3-5.3
	C10,13.3,10.9,13.6,11.7,14z M9,21.3c1.5,0,2.7-1.2,2.7-2.7c0-1.5-1.2-2.7-2.7-2.7c-1.5,0-2.7,1.2-2.7,2.7C6.3,20.1,7.5,21.3,9,21.3
	z"/>
</svg>
