<?xml version="1.0" encoding="utf-8"?>
<!-- Generator: Adobe Illustrator 27.6.1, SVG Export Plug-In . SVG Version: 6.00 Build 0)  -->
<svg version="1.1" id="Capa_1" xmlns="http://www.w3.org/2000/svg" xmlns:xlink="http://www.w3.org/1999/xlink" x="0px" y="0px"
	 viewBox="0 0 512 512" style="enable-background:new 0 0 512 512;" xml:space="preserve">
<style type="text/css">
	.st0{fill:url(#SVGID_1_);}
	.st1{fill:url(#SVGID_00000078006606945000296870000007520287105013098642_);}
	.st2{fill:url(#SVGID_00000115484129169739446570000018203936425786528446_);}
	.st3{fill:url(#SVGID_00000008114900892935845230000017298472229123930531_);}
</style>
<g>
	<g>
		<g>
			<linearGradient id="SVGID_1_" gradientUnits="userSpaceOnUse" x1="56.464" y1="-73.5202" x2="560.4062" y2="430.422">
				<stop  offset="0" style="stop-color:#7900FF"/>
				<stop  offset="1" style="stop-color:#BC7DFF"/>
			</linearGradient>
			<path class="st0" d="M438,364c-16.8,0-32.3,5.6-44.7,15.1l-78.4-78.4c9.5-12.4,15.1-27.9,15.1-44.7c0-8-1.3-15.7-3.7-23
				l80.7-39.1c10.5,14.6,27.7,24.1,47,24.1c32,0,58-26,58-58s-26-58-58-58s-58,26-58,58c0,5.5,0.8,10.9,2.2,15.9L317.6,215
				c-11.5-17.3-30.1-29.4-51.6-32.3v-26.6c13.9-4.3,24-17.2,24-32.5c0-18.7-15.3-34-34-34s-34,15.3-34,34c0,15.3,10.1,28.2,24,32.5
				v26.6c-12.9,1.8-24.8,6.9-34.7,14.4l-64.6-64.6c15.8-20.2,21.3-47,14.5-72.1c-1.5-5.3-6.9-8.5-12.3-7c-5.3,1.5-8.5,6.9-7,12.3
				c5.8,21.3-0.2,44.3-15.8,60c-0.1,0.1-0.1,0.1-0.2,0.2c-0.1,0.1-0.1,0.1-0.2,0.2c-24.2,24-63.4,24-87.5-0.2
				C14,101.7,14,62.4,38.2,38.2c15.3-15.3,37-21.5,58.1-16.5c5.4,1.3,10.8-2.1,12-7.4c1.3-5.4-2.1-10.8-7.4-12
				C73-4.3,44.3,3.8,24,24c-32,32-32,84,0,116c16,16,37,24,58,24c17.9,0,35.7-5.8,50.5-17.4l64.6,64.6
				c-9.5,12.4-15.1,27.9-15.1,44.7c0,40.8,33.2,74,74,74c16.8,0,32.3-5.6,44.7-15.1l78.4,78.4c-9.5,12.4-15.1,27.9-15.1,44.7
				c0,40.8,33.2,74,74,74s74-33.2,74-74C512,397.2,478.8,364,438,364z M454,122c21,0,38,17,38,38s-17,38-38,38c-21,0-38-17-38-38
				C416,139.1,433,122,454,122z M242,123.6c0-7.7,6.3-14,14-14c7.7,0,14,6.3,14,14c0,7.7-6.3,14-14,14
				C248.3,137.6,242,131.4,242,123.6z M256,310c-29.8,0-54-24.2-54-54s24.2-54,54-54s54,24.2,54,54C310,285.8,285.8,310,256,310z
				 M438,492c-29.8,0-54-24.2-54-54c0-29.8,24.2-54,54-54s54,24.2,54,54C492,467.8,467.8,492,438,492z"/>
		</g>
	</g>
	<g>
		<g>
			
				<linearGradient id="SVGID_00000026870935247555396470000007426439609274353592_" gradientUnits="userSpaceOnUse" x1="42.3711" y1="-59.4273" x2="546.3134" y2="444.5149">
				<stop  offset="0" style="stop-color:#7900FF"/>
				<stop  offset="1" style="stop-color:#BC7DFF"/>
			</linearGradient>
			<path style="fill:url(#SVGID_00000026870935247555396470000007426439609274353592_);" d="M140.3,24.4L140,24
				c-3.9-3.9-10.2-3.9-14.1,0c-3.9,3.9-3.9,10.2,0,14.1l0.3,0.3c2,2,4.5,3,7.1,3c2.5,0,5.1-1,7-2.9
				C144.2,34.6,144.2,28.3,140.3,24.4z"/>
		</g>
	</g>
	<g>
		<g>
			
				<linearGradient id="SVGID_00000018228490341742911690000000835182293260002228_" gradientUnits="userSpaceOnUse" x1="-173.1105" y1="156.0543" x2="330.8318" y2="659.9965">
				<stop  offset="0" style="stop-color:#7900FF"/>
				<stop  offset="1" style="stop-color:#BC7DFF"/>
			</linearGradient>
			<path style="fill:url(#SVGID_00000018228490341742911690000000835182293260002228_);" d="M165.8,346.2c-3.9-3.9-10.2-3.9-14.1,0
				l-60.4,60.4C81.9,399.9,70.4,396,58,396c-32,0-58,26-58,58c0,32,26,58,58,58s58-26,58-58c0-12.4-3.9-23.9-10.6-33.3l60.4-60.4
				C169.7,356.4,169.7,350.1,165.8,346.2z M58,492c-21,0-38-17-38-38c0-21,17-38,38-38s38,17,38,38C96,475,79,492,58,492z"/>
		</g>
	</g>
	<g>
		<g>
			
				<linearGradient id="SVGID_00000132792197008262187580000010042183037887263130_" gradientUnits="userSpaceOnUse" x1="-82.0296" y1="64.9734" x2="421.9126" y2="568.9156">
				<stop  offset="0" style="stop-color:#7900FF"/>
				<stop  offset="1" style="stop-color:#BC7DFF"/>
			</linearGradient>
			<path style="fill:url(#SVGID_00000132792197008262187580000010042183037887263130_);" d="M189.6,322.4c-1.9-1.9-4.4-2.9-7.1-2.9
				s-5.2,1.1-7.1,2.9c-1.9,1.9-2.9,4.4-2.9,7.1s1.1,5.2,2.9,7.1c1.9,1.9,4.4,2.9,7.1,2.9c2.6,0,5.2-1.1,7.1-2.9
				c1.9-1.9,2.9-4.4,2.9-7.1S191.4,324.3,189.6,322.4z"/>
		</g>
	</g>
</g>
</svg>
