<?xml version="1.0" encoding="utf-8"?>
<!-- Generator: Adobe Illustrator 27.6.1, SVG Export Plug-In . SVG Version: 6.00 Build 0)  -->
<svg version="1.1" id="Layer_1" xmlns="http://www.w3.org/2000/svg" xmlns:xlink="http://www.w3.org/1999/xlink" x="0px" y="0px"
	 viewBox="0 0 104 104" style="enable-background:new 0 0 104 104;" xml:space="preserve">
<style type="text/css">
	.st0{fill:url(#SVGID_1_);}
	.st1{fill:url(#SVGID_00000106827123350144751490000010077897578791141788_);}
	.st2{fill:url(#SVGID_00000063619970984612755010000007251351979453888420_);}
</style>
<linearGradient id="SVGID_1_" gradientUnits="userSpaceOnUse" x1="0.1862" y1="25.3542" x2="50.8692" y2="25.3542">
	<stop  offset="0" style="stop-color:#7900FF"/>
	<stop  offset="1" style="stop-color:#BC7DFF"/>
</linearGradient>
<path class="st0" d="M25.2,50.7l2.1-2.1l-2.7-2.7l5.3-5.3c0.6-0.6,0.5-1.5-0.1-2.1c-0.6-0.5-1.5-0.5-2,0l-5.3,5.3l-5-5l5.3-5.3
	c0.6-0.6,0.5-1.6-0.1-2.1c-0.6-0.5-1.5-0.5-2,0l-5.3,5.3l-5-5L21.9,20c0.6-0.6,0.5-1.6-0.1-2.1c-0.6-0.5-1.5-0.5-2,0L8.2,29.5
	l-4.4-4.4c-1-1-1-2.5,0-3.5L21.8,3.7c1-1,2.5-1,3.5,0l23.5,23.4l2.1-2.1L27.4,1.6c-2.1-2.1-5.6-2.1-7.7,0L1.8,19.5
	c-2.1,2.1-2.1,5.6,0,7.7L25.2,50.7z"/>
<linearGradient id="SVGID_00000019668753455783454460000017145770858847215259_" gradientUnits="userSpaceOnUse" x1="2.3382" y1="51.94" x2="101.7874" y2="51.94">
	<stop  offset="0" style="stop-color:#7900FF"/>
	<stop  offset="1" style="stop-color:#BC7DFF"/>
</linearGradient>
<path style="fill:url(#SVGID_00000019668753455783454460000017145770858847215259_);" d="M93.6,32.8l3.7-3.7
	c6.1-6.2,6-16.3-0.2-22.4c-6.2-6.1-16-6.1-22.2,0L11.5,70.1c-0.1,0.1-0.2,0.3-0.3,0.4v0.2L2.4,99.8c-0.2,0.8,0.2,1.6,1,1.9
	c0.3,0.1,0.6,0.1,0.9,0l29.1-8.8h0.2c0.2-0.1,0.3-0.2,0.4-0.3L93.6,32.8L93.6,32.8z M65,20.7l8,8L22.7,79.2l-8-8L65,20.7z M6,98
	l1.2-4.2c1.3,0.6,2.4,1.6,3.1,2.9L6,98z M13.3,95.8c-1-2.2-2.9-4-5.1-4.9L13.2,74L30,90.8L13.3,95.8z M32.8,89.3l-8-8l50.4-50.4
	l8,8.1L32.8,89.3z M85.4,36.8l-9.1-9.1l-9.1-9.1l5.1-5.1l18.2,18.2L85.4,36.8z M74.4,11.4L77,8.8C82.2,4,90.3,4.3,95.1,9.5
	c4.6,4.9,4.6,12.5,0,17.5l-2.6,2.6L74.4,11.4z"/>
<linearGradient id="SVGID_00000053506216879373340280000005157670368911610505_" gradientUnits="userSpaceOnUse" x1="53.2594" y1="78.4586" x2="103.9704" y2="78.4586">
	<stop  offset="0" style="stop-color:#7900FF"/>
	<stop  offset="1" style="stop-color:#BC7DFF"/>
</linearGradient>
<path style="fill:url(#SVGID_00000053506216879373340280000005157670368911610505_);" d="M102.4,76.6L78.9,53.1l-2.1,2.1l23.5,23.5
	c1,1,1,2.5,0,3.5l-17.9,17.9c-1,1-2.5,1-3.5,0l-4.4-4.4L86,84.1c0.6-0.5,0.7-1.5,0.2-2.1c-0.5-0.6-1.5-0.7-2.1-0.2
	C84.1,81.9,84,81.9,84,82L72.4,93.6l-5-5l5.3-5.3c0.6-0.6,0.6-1.5,0.1-2.1c-0.6-0.6-1.5-0.6-2.1-0.1c0,0-0.1,0-0.1,0.1l-5.3,5.2
	l-5-5l5.3-5.3c0.6-0.6,0.5-1.5-0.1-2.1c-0.6-0.5-1.5-0.5-2,0l-5.3,5.3l-2.7-2.7l-2.1,2.1l23.5,23.5c2.1,2.1,5.6,2.1,7.7,0l17.9-17.9
	C104.5,82.2,104.5,78.7,102.4,76.6C102.4,76.6,102.4,76.6,102.4,76.6z"/>
</svg>
