<svg width="239" height="70" viewBox="0 0 239 70" fill="none" xmlns="http://www.w3.org/2000/svg">
<path d="M28.8 7.9C28.8 12.3 25.2 15.8 20.9 15.8C16.5 15.8 13 12.2 13 7.9C13 3.5 16.6 0 20.9 0C25.3 0 28.8 3.5 28.8 7.9Z" fill="white"/>
<path d="M21.2 23.6C15.6 29.2 15.6 38.4 21.2 44L42.6 65.4C48.2 71 57.4 71 63 65.4C68.6 59.8 68.6 50.6 63 45L41.6 23.6C35.9 18 26.8 18 21.2 23.6ZM58.4 49.6C61.5 52.7 61.5 57.7 58.4 60.8C55.3 63.9 50.3 63.9 47.2 60.8L25.8 39.4C22.7 36.3 22.7 31.3 25.8 28.2C27.3 26.7 29.4 25.9 31.4 25.9C33.4 25.9 35.5 26.7 37 28.2L58.4 49.6Z" fill="white"/>
<path d="M47.4 65.4C53 59.8 53 50.6 47.4 45L24.6 22.2C19 16.6 9.8 16.6 4.2 22.2C-1.4 27.8 -1.4 37 4.2 42.6L27 65.4C32.6 71.1 41.8 71.1 47.4 65.4ZM8.8 38.1C5.7 35 5.7 30 8.8 26.9C11.9 23.8 16.9 23.8 20 26.9L42.8 49.7C45.9 52.8 45.9 57.8 42.8 60.9C41.3 62.4 39.2 63.2 37.2 63.2C35.2 63.2 33.1 62.4 31.6 60.9L8.8 38.1Z" fill="white"/>
<path d="M81 12C79.8 10.8 79.2 9.3 79.2 7.5C79.2 5.7 79.8 4.2 81 3C82.2 1.8 83.7 1.2 85.5 1.2C87.2 1.2 88.7 1.8 89.9 3C91.1 4.2 91.7 5.7 91.7 7.5C91.7 9.3 91.1 10.8 89.9 12C88.7 13.2 87.2 13.8 85.5 13.8C83.7 13.9 82.2 13.2 81 12ZM90.3 67.6H80.5V20.2H90.3V67.6Z" fill="white"/>
<path d="M100.4 31C102.4 27.3 105.1 24.5 108.5 22.4C111.9 20.4 115.7 19.3 119.9 19.3C123 19.3 126.1 20 129.1 21.3C132.1 22.6 134.5 24.4 136.3 26.7V3.8H146.2V67.5H136.3V60.4C134.7 62.7 132.5 64.6 129.6 66.1C126.8 67.6 123.5 68.3 119.8 68.3C115.7 68.3 111.9 67.3 108.5 65.2C105.1 63.1 102.4 60.2 100.4 56.4C98.4 52.6 97.4 48.4 97.4 43.6C97.4 38.9 98.4 34.6 100.4 31ZM134.2 35.3C132.9 32.9 131.1 31.1 128.9 29.8C126.7 28.5 124.4 27.9 121.8 27.9C119.3 27.9 116.9 28.5 114.7 29.7C112.5 30.9 110.8 32.7 109.4 35.1C108.1 37.5 107.4 40.3 107.4 43.6C107.4 46.9 108.1 49.7 109.4 52.2C110.7 54.7 112.5 56.5 114.7 57.8C116.9 59.1 119.2 59.7 121.7 59.7C124.2 59.7 126.6 59.1 128.8 57.8C131 56.5 132.7 54.7 134.1 52.2C135.4 49.8 136.1 46.9 136.1 43.6C136.2 40.5 135.5 37.7 134.2 35.3Z" fill="white"/>
<path d="M164.9 65.3C161.3 63.3 158.4 60.4 156.4 56.7C154.3 53 153.3 48.7 153.3 43.8C153.3 39 154.4 34.7 156.5 31C158.6 27.3 161.5 24.4 165.2 22.4C168.9 20.4 173 19.4 177.5 19.4C182 19.4 186.1 20.4 189.8 22.4C193.5 24.4 196.4 27.3 198.5 31C200.6 34.7 201.7 39 201.7 43.8C201.7 48.6 200.6 52.9 198.4 56.6C196.2 60.3 193.3 63.2 189.5 65.2C185.7 67.2 181.6 68.3 177.1 68.3C172.5 68.3 168.5 67.3 164.9 65.3ZM184.1 58C186.3 56.8 188.1 55 189.5 52.6C190.9 50.2 191.6 47.3 191.6 43.8C191.6 40.4 190.9 37.4 189.6 35.1C188.3 32.7 186.5 30.9 184.3 29.7C182.1 28.5 179.8 27.9 177.2 27.9C174.7 27.9 172.3 28.5 170.2 29.7C168 30.9 166.3 32.7 165.1 35.1C163.8 37.5 163.2 40.4 163.2 43.8C163.2 48.9 164.5 52.9 167.1 55.6C169.7 58.4 173 59.8 177 59.8C179.5 59.8 181.9 59.2 184.1 58Z" fill="white"/>
<path d="M217.4 59.5H239V67.6H206.1V59.5L227.7 28.1H206.1V20.1H239V28.1L217.4 59.5Z" fill="white"/>
</svg>
