<?xml version="1.0" encoding="utf-8"?>
<!-- Generator: Adobe Illustrator 27.6.1, SVG Export Plug-In . SVG Version: 6.00 Build 0)  -->
<svg version="1.1" id="Capa_1" xmlns="http://www.w3.org/2000/svg" xmlns:xlink="http://www.w3.org/1999/xlink" x="0px" y="0px"
	 viewBox="0 0 53 53" style="enable-background:new 0 0 53 53;" xml:space="preserve">
<style type="text/css">
	.st0{fill:url(#SVGID_1_);}
	.st1{fill:url(#SVGID_00000176005375387050359670000005569115891633080728_);}
	.st2{fill:url(#SVGID_00000025414128254707087770000017096551879538097292_);}
	.st3{fill:url(#SVGID_00000035504065474997382280000016191579150457909911_);}
	.st4{fill:url(#SVGID_00000177456712662789140890000004398351495338075010_);}
	.st5{fill:url(#SVGID_00000119088655036140001680000011731145581168216971_);}
	.st6{fill:url(#SVGID_00000146460255643085257640000007138234372083534726_);}
	.st7{fill:url(#SVGID_00000015325158001879494600000005056562373155663544_);}
</style>
<g>
	<linearGradient id="SVGID_1_" gradientUnits="userSpaceOnUse" x1="8.3051" y1="-8.4753" x2="60.0803" y2="42.9405">
		<stop  offset="0" style="stop-color:#7900FF"/>
		<stop  offset="1" style="stop-color:#BC7DFF"/>
	</linearGradient>
	<path class="st0" d="M49.5,3.5c-4.7-4.7-12.3-4.7-17,0l-9.2,9.2c-0.4,0.4-0.4,1,0,1.4s1,0.4,1.4,0l9.2-9.2C35.8,3,38.3,2,41,2
		c2.7,0,5.2,1,7.1,2.9S51,9.3,51,12s-1,5.2-2.9,7.1l-12,12c-3.9,3.9-10.2,3.9-14.1,0c-0.4-0.4-1-0.4-1.4,0s-0.4,1,0,1.4
		c2.3,2.3,5.4,3.5,8.5,3.5s6.1-1.2,8.5-3.5l12-12c2.3-2.3,3.5-5.3,3.5-8.5C53,8.8,51.7,5.8,49.5,3.5z"/>
	
		<linearGradient id="SVGID_00000165913010150235456360000018182688124454337700_" gradientUnits="userSpaceOnUse" x1="-8.9576" y1="8.9081" x2="42.8177" y2="60.3239">
		<stop  offset="0" style="stop-color:#7900FF"/>
		<stop  offset="1" style="stop-color:#BC7DFF"/>
	</linearGradient>
	<path style="fill:url(#SVGID_00000165913010150235456360000018182688124454337700_);" d="M26.8,40.3l-7.8,7.8
		C17.2,49.9,14.7,51,12,51s-5.2-1-7.1-2.9C1,44.2,1,37.8,4.9,33.9l11.3-11.3c3.9-3.9,10.2-3.9,14.1,0c0.4,0.4,1,0.4,1.4,0
		s0.4-1,0-1.4c-4.7-4.7-12.3-4.7-17,0L3.5,32.5C1.2,34.8,0,37.8,0,41s1.2,6.2,3.5,8.5S8.8,53,12,53c3.2,0,6.2-1.2,8.5-3.5l7.8-7.8
		c0.4-0.4,0.4-1,0-1.4S27.2,39.9,26.8,40.3z"/>
	
		<linearGradient id="SVGID_00000011031564639076138890000009904955674463289014_" gradientUnits="userSpaceOnUse" x1="-7.1938" y1="7.132" x2="44.5814" y2="58.5477">
		<stop  offset="0" style="stop-color:#7900FF"/>
		<stop  offset="1" style="stop-color:#BC7DFF"/>
	</linearGradient>
	<path style="fill:url(#SVGID_00000011031564639076138890000009904955674463289014_);" d="M34,44c-0.6,0-1,0.4-1,1v6
		c0,0.6,0.4,1,1,1s1-0.4,1-1v-6C35,44.5,34.5,44,34,44z"/>
	
		<linearGradient id="SVGID_00000091710171296025269540000006712933167233537665_" gradientUnits="userSpaceOnUse" x1="-2.8356" y1="2.7433" x2="48.9397" y2="54.159">
		<stop  offset="0" style="stop-color:#7900FF"/>
		<stop  offset="1" style="stop-color:#BC7DFF"/>
	</linearGradient>
	<path style="fill:url(#SVGID_00000091710171296025269540000006712933167233537665_);" d="M38.4,42.3c-0.4-0.4-1-0.4-1.4,0
		s-0.4,1,0,1.4l4.2,4.2c0.2,0.2,0.5,0.3,0.7,0.3s0.5-0.1,0.7-0.3c0.4-0.4,0.4-1,0-1.4L38.4,42.3z"/>
	
		<linearGradient id="SVGID_00000007422901336840805640000015466866098108311939_" gradientUnits="userSpaceOnUse" x1="1.2782" y1="-1.3992" x2="53.0535" y2="50.0165">
		<stop  offset="0" style="stop-color:#7900FF"/>
		<stop  offset="1" style="stop-color:#BC7DFF"/>
	</linearGradient>
	<path style="fill:url(#SVGID_00000007422901336840805640000015466866098108311939_);" d="M45,38h-6c-0.6,0-1,0.4-1,1s0.4,1,1,1h6
		c0.6,0,1-0.4,1-1S45.5,38,45,38z"/>
	
		<linearGradient id="SVGID_00000109749386226251378650000010792899078863834517_" gradientUnits="userSpaceOnUse" x1="4.3685" y1="-4.5112" x2="56.1438" y2="46.9046">
		<stop  offset="0" style="stop-color:#7900FF"/>
		<stop  offset="1" style="stop-color:#BC7DFF"/>
	</linearGradient>
	<path style="fill:url(#SVGID_00000109749386226251378650000010792899078863834517_);" d="M16,11c0.6,0,1-0.4,1-1V4c0-0.6-0.4-1-1-1
		s-1,0.4-1,1v6C15,10.6,15.4,11,16,11z"/>
	
		<linearGradient id="SVGID_00000134954775198684444230000000953511815725126825_" gradientUnits="userSpaceOnUse" x1="9.903085e-03" y1="-0.1221" x2="51.7852" y2="51.2936">
		<stop  offset="0" style="stop-color:#7900FF"/>
		<stop  offset="1" style="stop-color:#BC7DFF"/>
	</linearGradient>
	<path style="fill:url(#SVGID_00000134954775198684444230000000953511815725126825_);" d="M11.5,12.7c0.2,0.2,0.5,0.3,0.7,0.3
		s0.5-0.1,0.7-0.3c0.4-0.4,0.4-1,0-1.4L8.7,7.1c-0.4-0.4-1-0.4-1.4,0s-0.4,1,0,1.4L11.5,12.7z"/>
	
		<linearGradient id="SVGID_00000177446932316652056420000012962359021809504933_" gradientUnits="userSpaceOnUse" x1="-4.1035" y1="4.0201" x2="47.6717" y2="55.4358">
		<stop  offset="0" style="stop-color:#7900FF"/>
		<stop  offset="1" style="stop-color:#BC7DFF"/>
	</linearGradient>
	<path style="fill:url(#SVGID_00000177446932316652056420000012962359021809504933_);" d="M5,17h6c0.6,0,1-0.4,1-1s-0.4-1-1-1H5
		c-0.6,0-1,0.4-1,1C4,16.6,4.4,17,5,17z"/>
</g>
</svg>
