<?xml version="1.0" encoding="utf-8"?>
<!-- Generator: Adobe Illustrator 27.6.1, SVG Export Plug-In . SVG Version: 6.00 Build 0)  -->
<svg version="1.1" id="Layer_1" xmlns="http://www.w3.org/2000/svg" xmlns:xlink="http://www.w3.org/1999/xlink" x="0px" y="0px"
	 viewBox="0 0 968 968" style="enable-background:new 0 0 968 968;" xml:space="preserve">
<style type="text/css">
	.st0{fill:url(#SVGID_1_);}
	.st1{fill:url(#SVGID_00000119109688357815365310000006072401009582553274_);}
	.st2{fill:url(#SVGID_00000139985982479830367110000015423046831181874340_);}
	.st3{fill:url(#SVGID_00000058563584720900950730000007070795659339065755_);}
	.st4{fill:url(#SVGID_00000056423501106217413950000010894633508093847211_);}
	.st5{fill:url(#SVGID_00000176004914573264765400000004290201477876949891_);}
</style>
<g id="surface1">
	<linearGradient id="SVGID_1_" gradientUnits="userSpaceOnUse" x1="-19.1767" y1="21.3171" x2="938.666" y2="977.0025">
		<stop  offset="0" style="stop-color:#7900FF"/>
		<stop  offset="1" style="stop-color:#BC7DFF"/>
	</linearGradient>
	<path class="st0" d="M960.2,103.9c-4.8-2.8-10.8-2.8-15.6,0L731.5,225.7l-56.4-14.1l-7.6,30.3l62.5,15.6c3.9,1,8,0.4,11.5-1.6
		l195.3-111.7v651.1L731.5,912.6L238,789.3c-3.9-1-8-0.4-11.5,1.6L31.2,902.4v-651l205.3-117.3l56.4,14.1l7.6-30.3L238,102.2
		c-3.9-1-8-0.4-11.5,1.6L7.9,228.7c-4.9,2.8-7.9,8-7.9,13.6v687c0,5.6,3,10.7,7.8,13.5c4.8,2.8,10.8,2.8,15.6,0L236.6,821
		l493.5,123.3c3.9,1,8,0.4,11.5-1.6l218.6-124.9c4.8-2.8,7.8-8,7.8-13.5v-687C968,111.8,965,106.7,960.2,103.9z"/>
	
		<linearGradient id="SVGID_00000110463957469482867460000011183760816112447140_" gradientUnits="userSpaceOnUse" x1="125.7443" y1="-123.931" x2="1083.587" y2="831.7543">
		<stop  offset="0" style="stop-color:#7900FF"/>
		<stop  offset="1" style="stop-color:#BC7DFF"/>
	</linearGradient>
	<path style="fill:url(#SVGID_00000110463957469482867460000011183760816112447140_);" d="M484,507.7c4.9,0,9.5-2.3,12.5-6.2
		c6.5-8.8,159.3-215.7,159.3-306c0-94.8-76.9-171.7-171.7-171.7c-94.8,0-171.7,76.9-171.7,171.7c0,90.3,152.7,297.2,159.3,306
		C474.5,505.4,479.1,507.7,484,507.7z M484,55c77.6,0.1,140.4,62.9,140.5,140.5c0,60.7-92.1,202.2-140.5,270.1
		c-48.4-67.8-140.5-209.4-140.5-270.1C343.6,117.9,406.4,55,484,55z"/>
	
		<linearGradient id="SVGID_00000115506894922657356060000016135428441540300942_" gradientUnits="userSpaceOnUse" x1="144.7678" y1="-142.9975" x2="1102.6105" y2="812.6879">
		<stop  offset="0" style="stop-color:#7900FF"/>
		<stop  offset="1" style="stop-color:#BC7DFF"/>
	</linearGradient>
	<path style="fill:url(#SVGID_00000115506894922657356060000016135428441540300942_);" d="M577.7,195.5c0-51.7-41.9-93.7-93.7-93.7
		c-51.7,0-93.7,41.9-93.7,93.7c0,51.7,42,93.7,93.7,93.7C535.7,289.1,577.6,247.2,577.7,195.5z M421.5,195.5
		c0-34.5,28-62.5,62.5-62.5s62.5,28,62.5,62.5c0,34.5-28,62.5-62.5,62.5S421.5,230,421.5,195.5z"/>
	
		<linearGradient id="SVGID_00000064342281303464214390000013263554641898130366_" gradientUnits="userSpaceOnUse" x1="-26.9751" y1="29.1331" x2="930.8676" y2="984.8185">
		<stop  offset="0" style="stop-color:#7900FF"/>
		<stop  offset="1" style="stop-color:#BC7DFF"/>
	</linearGradient>
	<path style="fill:url(#SVGID_00000064342281303464214390000013263554641898130366_);" d="M452.8,523.3h62.5v31.2h-62.5V523.3z"/>
	
		<linearGradient id="SVGID_00000178178333856885798690000018039957908444841107_" gradientUnits="userSpaceOnUse" x1="4.1803" y1="-2.0926" x2="962.0229" y2="953.5928">
		<stop  offset="0" style="stop-color:#7900FF"/>
		<stop  offset="1" style="stop-color:#BC7DFF"/>
	</linearGradient>
	<path style="fill:url(#SVGID_00000178178333856885798690000018039957908444841107_);" d="M530.8,523.3h31.2v31.2h-31.2V523.3z"/>
	
		<linearGradient id="SVGID_00000123405787535440272930000017928792977313530515_" gradientUnits="userSpaceOnUse" x1="-58.1305" y1="60.3589" x2="899.7122" y2="1016.0443">
		<stop  offset="0" style="stop-color:#7900FF"/>
		<stop  offset="1" style="stop-color:#BC7DFF"/>
	</linearGradient>
	<path style="fill:url(#SVGID_00000123405787535440272930000017928792977313530515_);" d="M405.9,523.3h31.2v31.2h-31.2V523.3z"/>
</g>
</svg>
