<?xml version="1.0" encoding="utf-8"?>
<!-- Generator: Adobe Illustrator 27.6.1, SVG Export Plug-In . SVG Version: 6.00 Build 0)  -->
<svg version="1.1" id="Capa_1" xmlns="http://www.w3.org/2000/svg" xmlns:xlink="http://www.w3.org/1999/xlink" x="0px" y="0px"
	 viewBox="0 0 512 512" style="enable-background:new 0 0 512 512;" xml:space="preserve">
<style type="text/css">
	.st0{fill:url(#SVGID_1_);}
	.st1{fill:url(#SVGID_00000000207766019723735270000007370787434860657059_);}
	.st2{fill:url(#SVGID_00000139280147718710411800000014427523162274752930_);}
	.st3{fill:url(#SVGID_00000016781671417432738030000003854968722337722546_);}
</style>
<g>
	<linearGradient id="SVGID_1_" gradientUnits="userSpaceOnUse" x1="101.4425" y1="-110.4904" x2="599.7795" y2="390.004">
		<stop  offset="0" style="stop-color:#7900FF"/>
		<stop  offset="1" style="stop-color:#BC7DFF"/>
	</linearGradient>
	<path class="st0" d="M270.9,0.8c7.3,1.3,14.6,2.5,21.8,4c37.9,7.9,69.6,26.6,95.5,55.4c21.5,23.9,35.6,51.8,41.6,83.4
		c10,53-1.9,100.9-34.4,143.8c-3.5,4.6-7.4,5.4-11.1,2.6c-3.7-2.8-4-7.3-0.5-11.8c18.9-24.1,30.6-51.4,33.4-81.7
		c5.6-60.8-15.5-110.7-64-148.2c-30.8-23.8-66.4-34-105.1-32.3c-33.3,1.5-63.5,12.6-90,33c-0.9,0.7-1.8,1.4-2.8,2.1
		c-4.2,2.9-8.4,2.5-11-1c-2.8-3.7-2.2-7.4,2-10.8c13.8-11.1,28.9-19.9,45.5-26.4c14.9-5.8,30.2-9.8,46.1-11.1c1.2-0.1,2.3-0.1,3.3-1
		C251,0.8,260.9,0.8,270.9,0.8z"/>
	
		<linearGradient id="SVGID_00000036246339597870691640000000904405143414792835_" gradientUnits="userSpaceOnUse" x1="-66.7269" y1="56.9541" x2="431.6102" y2="557.4485">
		<stop  offset="0" style="stop-color:#7900FF"/>
		<stop  offset="1" style="stop-color:#BC7DFF"/>
	</linearGradient>
	<path style="fill:url(#SVGID_00000036246339597870691640000000904405143414792835_);" d="M255.6,511.2c-15.5,0-30.9,0.1-46.4,0
		c-18-0.1-31.8-13.2-32.9-31.3c-0.1-2.4-0.6-3.3-3.3-3.7c-20.3-2.5-29.7-24.6-17.6-41.3c1.5-2.1,1.6-3.1,0-5.3
		c-7.3-9.8-7.2-21.2,0-31.4c1.3-1.8,1.9-2.7,0.3-5c-9.3-12.6-7.4-26.8,4.7-36.5c2.5-2,1.6-3.4,0.7-5.4
		c-9.5-20.7-22.6-38.9-37.7-55.9c-23.9-26.9-38.4-58.1-43-93.9C73.9,151.5,87,106.8,118,67.2c3.9-5,8.1-5.9,11.8-2.8
		c3.5,2.9,3.5,7.5-0.4,12.3C111.4,99.1,100,124.6,95.7,153c-6.7,44.3,3.4,84.8,29.6,121.2c9.7,13.5,21.9,24.9,31.1,38.8
		c7.2,11,13.9,22.2,19.2,34.2c1.4,3.1,3,4.4,6.6,4.4c49.3-0.1,98.7-0.1,148,0c3.1,0,4.6-0.9,5.9-3.8c6.2-14,13.9-27.2,22.8-39.6
		c3.9-5.5,9.8-6.1,13.2-1.5c2.4,3.3,1.6,6.4-0.7,9.6c-7.9,10.9-14.7,22.5-20.5,34.6c-1.4,2.8-1.2,4.5,1.5,6.6
		c10.9,8.6,12.7,23.9,4.2,35.1c-1.8,2.4-1.7,3.5,0,5.8c7.2,9.7,7.1,20.9,0,30.9c-1.6,2.2-1.8,3.4,0,5.8
		c11.9,16.3,2.5,38.4-17.6,40.9c-2.9,0.4-3.3,1.5-3.4,4c-0.9,17.2-15,30.8-32.2,31C287.5,511.3,271.5,511.2,255.6,511.2z
		 M256.1,403.2c-25.4,0-50.8,0-76.2,0c-2.5,0-5-0.1-7.4,0.5c-4.7,1.1-7.5,5.6-7.3,11.1c0.2,5.2,3.5,9.2,8.8,9.8
		c4.9,0.5,10,0.2,14.9,0.6c4.2,0.4,7.4,3.9,6.9,7.7c-0.5,4-2.8,6.7-7.2,6.8c-4,0.1-8-0.1-12,0.1c-6.8,0.3-11,4.2-11.3,10.2
		c-0.4,7.5,3.8,11.5,12.1,11.6c43,0,86,0,129,0c10,0,19.9,0.1,29.9,0c6.9-0.1,11-4.7,10.6-11.6c-0.4-6.6-5-10.1-13.3-10.1
		c-35.2,0-70.4,0-105.6,0c-1.8,0-3.6-0.1-5.5-0.2c-4-0.3-5.9-2.7-6.3-6.4c-0.4-3.7,1.2-6.4,4.9-7.7c2.1-0.8,4.2-0.6,6.4-0.6
		c34.4,0,68.7,0.1,103.1,0.1c2.5,0,5,0,7.5-0.3c5-0.6,8.4-4.2,8.9-9.2c0.8-7.7-3.7-12.2-12.5-12.2
		C308.2,403.1,282.1,403.2,256.1,403.2z M256.3,366.5C256.3,366.5,256.3,366.5,256.3,366.5c-26.4,0-52.8,0-79.2,0
		c-8,0-12.4,4.5-12,11.8c0.4,6.3,5,10,13,10c51.8,0,103.6,0,155.5,0c1.5,0,3-0.1,4.4-0.4c6.9-1.4,10.5-7.7,8.4-14.3
		c-1.5-4.5-5.4-7-11.4-7.1C308.8,366.5,282.6,366.5,256.3,366.5z M255.9,476.3C255.9,476.3,255.9,476.4,255.9,476.3
		c-20.1,0-40.2,0.2-60.3-0.1c-4.5-0.1-5,1.8-4.3,5.3c1.7,8.6,8.7,14.6,17.6,14.6c31.4,0.1,62.8,0.1,94.2,0c8.8,0,15.9-6.2,17.5-14.8
		c0.7-3.6-0.1-5.3-4.4-5.2C296.1,476.5,276,476.3,255.9,476.3z"/>
	
		<linearGradient id="SVGID_00000101090157090485177710000004589981587074190478_" gradientUnits="userSpaceOnUse" x1="35.5331" y1="-44.865" x2="533.8702" y2="455.6293">
		<stop  offset="0" style="stop-color:#7900FF"/>
		<stop  offset="1" style="stop-color:#BC7DFF"/>
	</linearGradient>
	<path style="fill:url(#SVGID_00000101090157090485177710000004589981587074190478_);" d="M327.1,281c-5.3,0.3-9.6-2.1-13.1-5.8
		c-2.4-2.5-4.8-3.1-8-1.4c-5.4,2.9-11.1,5.2-17,6.9c-3,0.9-4.4,2.6-4.1,5.8c0.8,10.2-7.4,20.5-20.3,20.1c-5.8-0.2-11.6,0-17.4-0.1
		c-11.9-0.1-19.8-7.8-19.9-19.5c0-3.5-1.1-5.4-4.6-6.4c-5.6-1.6-10.9-3.8-16-6.6c-3.1-1.7-5.6-1.6-8.4,1.1c-9,8.4-19,8.1-27.7-0.6
		c-4.5-4.5-9-8.9-13.4-13.4c-7.5-7.7-7.8-18.1-0.4-25.8c3-3.1,3.1-5.6,1.1-9.2c-2.9-5-5.1-10.4-6.8-16c-1-3.3-2.8-4.8-6.4-5
		c-11.6-0.5-18.2-7.5-18.4-19.1c-0.1-6.3-0.1-12.6,0-18.9c0.2-11.2,6.5-18.3,17.7-19.5c3.4-0.4,4.9-1.6,5.8-4.8
		c1.8-6.2,4.2-12.2,7.3-17.9c1.5-2.8,1.5-4.9-0.8-7.5c-7.1-8.4-6.5-18,1.1-25.9c4.5-4.6,9.1-9.2,13.8-13.7c7.5-7.3,17-8.1,25.1-1.5
		c2.9,2.3,5,2.2,8,0.6c5.8-3.2,11.9-5.9,18.3-7.6c3-0.8,4.5-2.5,4.8-5.9c0.9-9.6,8.8-16.6,18.5-16.7c6.8-0.1,13.6-0.1,20.4,0
		c10,0.1,17.7,7.1,18.6,17.1c0.3,2.9,1.3,4.4,4.2,5.2c6.8,2.1,13.4,4.8,19.6,8.4c2.5,1.4,4.3,1.2,6.7-0.6c8.9-7.1,18.2-6.3,26.3,1.7
		c4.5,4.4,9,8.9,13.4,13.4c7.3,7.6,7.8,17.4,1,25.6c-2.2,2.6-2.6,4.6-1,7.5c3.2,5.8,5.5,12,7.4,18.4c0.8,2.8,2,4.1,5.1,4.3
		c10.5,0.8,19.2,7.6,18.4,21.4c-0.3,6.1,0.1,12.3-0.1,18.4c-0.2,9.8-7.3,17.3-17.2,17.7c-4.4,0.2-6.6,1.9-7.8,6
		c-1.7,5.7-4.3,11.1-7.1,16.4c-1.5,2.7-1.2,4.7,1,7.1c8.4,9.2,8.1,18.8-0.6,27.7c-4.5,4.6-9.2,9.1-13.8,13.7
		C336.6,279.5,332.3,281.3,327.1,281z M185.6,87c-2.9,0.2-3.9,1.3-5,2.3c-4,4-7.9,8.1-12,11.9c-2.7,2.6-2.9,4.7-0.3,7.6
		c5.7,6.4,6.5,13.6,2.7,21.2c-2.5,5.1-5,10.1-6.5,15.6c-2.7,10-8.1,16.6-19.1,17.1c-3.4,0.1-4.4,2.2-4.4,5.4
		c0.1,5.6,0.2,11.3,0,16.9c-0.1,3.7,1.1,5.4,5.1,5.5c9.6,0.3,15.7,5.4,18.6,14.5c1.7,5.2,3.9,10.2,6.4,15.1
		c5.2,10,4.5,16.1-2.9,24.5c-2.6,2.9-2.4,5,0.4,7.5c3.9,3.6,7.7,7.4,11.3,11.3c3.1,3.4,5.7,3.6,9.1,0.2c6.8-6.6,14.2-7.6,22.7-3.3
		c5.3,2.7,10.9,4.8,16.5,6.7c9,3.1,13.8,9.4,13.7,19c0,4.5,1.9,5.9,6,5.8c5.5-0.1,11-0.1,16.4,0c4,0.1,5.6-1.7,5.6-5.7
		c0.1-10.2,4.4-15.8,14-19.3c4.7-1.7,9.5-3.2,13.8-5.5c9.6-5.2,18.3-5,26.3,3c2.6,2.6,4.8,2.1,7.2-0.4c3.9-4.1,7.9-8.1,12-11.9
		c3-2.8,2.7-5,0-7.9c-6.7-7.2-7.5-14.4-2.9-23.2c2.5-4.9,4.8-9.8,6.4-15.1c3-9.7,9.3-15.1,19.5-15.4c3.6-0.1,4.5-1.8,4.5-5
		c-0.1-5.5-0.3-11,0.1-16.4c0.3-4.7-1.8-6.2-5.9-6.5c-8.4-0.6-13.7-5.4-16.3-13.1c-2.1-6.1-4.1-12.2-7.1-18
		c-4.3-8.2-3.9-15.9,2.5-22.9c2.2-2.4,2-4.5-0.4-6.8c-4.1-3.9-8.1-7.9-12-12c-2.6-2.8-5-3.1-8.1-0.6c-6.1,4.9-12.9,5.9-20,2.3
		c-6.7-3.4-13.5-6.3-20.6-8.6c-7.9-2.7-12.1-8.4-13-16.5c-0.3-3.4-2-4.7-5.2-4.6c-6,0-12,0.1-17.9,0c-3.3,0-4.6,1.6-5,4.8
		c-0.8,8-5,13.5-12.7,16.2c-7.1,2.4-13.9,5.2-20.6,8.7c-7.2,3.7-14.1,2.7-20.4-2.2C187,88.1,186,87,185.6,87z"/>
	
		<linearGradient id="SVGID_00000096770657315988710110000015970728280758737847_" gradientUnits="userSpaceOnUse" x1="36.3429" y1="-45.6714" x2="534.68" y2="454.823">
		<stop  offset="0" style="stop-color:#7900FF"/>
		<stop  offset="1" style="stop-color:#BC7DFF"/>
	</linearGradient>
	<path style="fill:url(#SVGID_00000096770657315988710110000015970728280758737847_);" d="M334,175c0.1,43-34.9,78-78.2,78.1
		c-43.1,0-78-34.9-78-78.2c-0.1-42.7,35-78,77.7-78.2C298.8,96.4,333.9,131.4,334,175z M310.6,206.4c7.8-13.1,10.2-26.9,7.8-41
		c-8.1-48.7-63.3-69.9-102.2-39.6c-22.6,17.6-30.1,51.7-17.2,76.9c1.4,2.7,2.2,4.2,4.9,0.9c5.4-6.7,12-11.9,19.7-15.7
		c3.1-1.5,3.9-2.6,2.2-6.2c-7.2-14.8-2.7-32.3,10.3-41.7c13.2-9.5,30.8-8.5,42.5,2.5c11.3,10.6,14,25.2,7.4,39.5
		c-0.7,1.6-2.8,3.2,0.4,4.8C295.9,191.3,303.6,197.9,310.6,206.4z M253.4,238.2c17.9,0,31.8-5.3,44-15.4c3.3-2.7,3.5-4.6,0.7-7.9
		c-6.1-7.2-13.3-12.9-22-16.5c-2.7-1.1-5.2-1.3-8-0.1c-6.9,2.9-14.4,3.6-21.3,0.8c-6.2-2.5-11.1-1-16.3,1.9c-7,3.8-12.6,9-17.5,15.2
		c-1.9,2.4-1.6,3.6,0.6,5.6C225.5,232.5,239.5,237.8,253.4,238.2z M255.9,185.5c10.4,0,18.6-8.1,18.8-18.5
		c0.2-9.8-8.6-18.6-18.7-18.7c-10.2,0-19,8.4-18.7,18.6C237.6,179.1,246.6,185.6,255.9,185.5z"/>
</g>
</svg>
