<?xml version="1.0" encoding="utf-8"?>
<!-- Generator: Adobe Illustrator 27.6.1, SVG Export Plug-In . SVG Version: 6.00 Build 0)  -->
<svg version="1.1" id="Layer_1" xmlns="http://www.w3.org/2000/svg" xmlns:xlink="http://www.w3.org/1999/xlink" x="0px" y="0px"
	 viewBox="0 0 512 512" style="enable-background:new 0 0 512 512;" xml:space="preserve">
<style type="text/css">
	.st0{fill:url(#SVGID_1_);}
	.st1{fill:url(#SVGID_00000038393565841745749550000018307556227164225706_);}
	.st2{fill:url(#SVGID_00000180344175274223333700000008264154310832297347_);}
	.st3{fill:url(#SVGID_00000118354688184944364990000005144583334346214842_);}
	.st4{fill:url(#SVGID_00000000907341972275663560000014745615499602250649_);}
	.st5{fill:url(#SVGID_00000000919215642171608540000015086286497064948098_);}
	.st6{fill:url(#SVGID_00000059289737774134115280000004158229548162161312_);}
	.st7{fill:url(#SVGID_00000076603069609381859930000018334932940924657810_);}
	.st8{fill:url(#SVGID_00000026127817443527394450000002607321058075398838_);}
	.st9{fill:url(#SVGID_00000170990381643153790740000016702902509163494797_);}
	.st10{fill:url(#SVGID_00000134218891041465557780000008633475140679394728_);}
	.st11{fill:url(#SVGID_00000115492666700577093000000010885166091530633348_);}
	.st12{fill:url(#SVGID_00000078749089692158056100000012714420434707267717_);}
	.st13{fill:url(#SVGID_00000110473069537104562340000003297573753382323846_);}
	.st14{fill:url(#SVGID_00000093170963430396253570000007863293337488566711_);}
	.st15{fill:url(#SVGID_00000043440979315624700330000009666371649303272624_);}
	.st16{fill:url(#SVGID_00000081645455777742238270000003396084919407327133_);}
	.st17{fill:url(#SVGID_00000037660291863282970410000012608655883272569474_);}
	.st18{fill:url(#SVGID_00000130641074710492694930000004032686682339066785_);}
	.st19{fill:url(#SVGID_00000082346603999856685450000002996829891322902699_);}
	.st20{fill:url(#SVGID_00000036253409860400429170000017443266331778900884_);}
	.st21{fill:url(#SVGID_00000124158101541983258010000016444403475534298267_);}
	.st22{fill:url(#SVGID_00000168800146042761329370000013763111555668903297_);}
	.st23{fill:url(#SVGID_00000023981464473357575970000012142264735603777408_);}
	.st24{fill:url(#SVGID_00000022528094772537161250000014457646915703845776_);}
	.st25{fill:url(#SVGID_00000117646446783025336860000002788040089023657354_);}
	.st26{fill:url(#SVGID_00000052802645532193701810000001719119055098823569_);}
	.st27{fill:url(#SVGID_00000171678947351149091890000016249990405148148882_);}
	.st28{fill:url(#SVGID_00000105393750452940007950000001979608685457617074_);}
</style>
<g>
	<g>
		<g>
			<linearGradient id="SVGID_1_" gradientUnits="userSpaceOnUse" x1="-28.7447" y1="34.5541" x2="476.0643" y2="536.1271">
				<stop  offset="0" style="stop-color:#7900FF"/>
				<stop  offset="1" style="stop-color:#BC7DFF"/>
			</linearGradient>
			<path class="st0" d="M397.5,389.3h-12.1L263.7,93.6c-1.3-3.1-4.3-5.1-7.7-5.1s-6.4,2-7.7,5.1L126.6,389.3h-12.1
				c-4.6,0-8.3,3.7-8.3,8.3c0,4.6,3.7,8.3,8.3,8.3h35.4c4.6,0,8.3-3.7,8.3-8.3c0-4.6-3.7-8.3-8.3-8.3h-5.3l29.6-71.9h119.5
				l29.6,71.9h-5.3c-4.6,0-8.3,3.7-8.3,8.3c0,4.6,3.7,8.3,8.3,8.3h79.6c4.6,0,8.3-3.7,8.3-8.3C405.8,393,402.1,389.3,397.5,389.3z
				 M181,300.8l52.9-128.5l52.9,128.5H181z M341.2,389.3l-98.3-238.8l13.1-31.9l111.5,270.7L341.2,389.3L341.2,389.3z"/>
		</g>
	</g>
	<g>
		<g>
			
				<linearGradient id="SVGID_00000176018924376427025130000003812146722861256351_" gradientUnits="userSpaceOnUse" x1="226.8106" y1="-222.6499" x2="731.6196" y2="278.9231">
				<stop  offset="0" style="stop-color:#7900FF"/>
				<stop  offset="1" style="stop-color:#BC7DFF"/>
			</linearGradient>
			<path style="fill:url(#SVGID_00000176018924376427025130000003812146722861256351_);" d="M503.7,0h-35.4c-4.6,0-8.3,3.7-8.3,8.3
				v9.4h-27.1c-4.6,0-8.3,3.7-8.3,8.3c0,4.6,3.7,8.3,8.3,8.3H460v9.4c0,4.6,3.7,8.3,8.3,8.3h9.4v27.1c0,4.6,3.7,8.3,8.3,8.3
				c4.6,0,8.3-3.7,8.3-8.3V52h9.4c4.6,0,8.3-3.7,8.3-8.3V8.3C512,3.7,508.3,0,503.7,0z M495.4,35.4h-18.8V16.6h18.8V35.4z"/>
		</g>
	</g>
	<g>
		<g>
			
				<linearGradient id="SVGID_00000181089381014155858690000002635625646641258413_" gradientUnits="userSpaceOnUse" x1="1.3382" y1="4.2772" x2="506.1472" y2="505.8502">
				<stop  offset="0" style="stop-color:#7900FF"/>
				<stop  offset="1" style="stop-color:#BC7DFF"/>
			</linearGradient>
			<path style="fill:url(#SVGID_00000181089381014155858690000002635625646641258413_);" d="M503.7,460h-9.4v-27.1
				c0-4.6-3.7-8.3-8.3-8.3c-4.6,0-8.3,3.7-8.3,8.3V460h-9.4c-4.6,0-8.3,3.7-8.3,8.3v9.4h-27.1c-4.6,0-8.3,3.7-8.3,8.3
				s3.7,8.3,8.3,8.3H460v9.4c0,4.6,3.7,8.3,8.3,8.3h35.4c4.6,0,8.3-3.7,8.3-8.3v-35.4C512,463.7,508.3,460,503.7,460z M495.4,495.4
				h-18.8v-18.8h18.8V495.4z"/>
		</g>
	</g>
	<g>
		<g>
			
				<linearGradient id="SVGID_00000072962599664225767410000000036945979567560636_" gradientUnits="userSpaceOnUse" x1="-99.006" y1="105.2687" x2="405.803" y2="606.8418">
				<stop  offset="0" style="stop-color:#7900FF"/>
				<stop  offset="1" style="stop-color:#BC7DFF"/>
			</linearGradient>
			<path style="fill:url(#SVGID_00000072962599664225767410000000036945979567560636_);" d="M26,212.3c-4.6,0-8.3,3.7-8.3,8.3v17.7
				c0,4.6,3.7,8.3,8.3,8.3c4.6,0,8.3-3.7,8.3-8.3v-17.7C34.3,216,30.6,212.3,26,212.3z"/>
		</g>
	</g>
	<g>
		<g>
			
				<linearGradient id="SVGID_00000146475496847135493620000007226229195418345147_" gradientUnits="userSpaceOnUse" x1="-72.4666" y1="78.5581" x2="432.3424" y2="580.1311">
				<stop  offset="0" style="stop-color:#7900FF"/>
				<stop  offset="1" style="stop-color:#BC7DFF"/>
			</linearGradient>
			<path style="fill:url(#SVGID_00000146475496847135493620000007226229195418345147_);" d="M26,159.2c-4.6,0-8.3,3.7-8.3,8.3v17.7
				c0,4.6,3.7,8.3,8.3,8.3c4.6,0,8.3-3.7,8.3-8.3v-17.7C34.3,163,30.6,159.2,26,159.2z"/>
		</g>
	</g>
	<g>
		<g>
			
				<linearGradient id="SVGID_00000054981825385294900720000001955065076497819018_" gradientUnits="userSpaceOnUse" x1="-125.5454" y1="131.9794" x2="379.2635" y2="633.5524">
				<stop  offset="0" style="stop-color:#7900FF"/>
				<stop  offset="1" style="stop-color:#BC7DFF"/>
			</linearGradient>
			<path style="fill:url(#SVGID_00000054981825385294900720000001955065076497819018_);" d="M26,265.4c-4.6,0-8.3,3.7-8.3,8.3v17.7
				c0,4.6,3.7,8.3,8.3,8.3c4.6,0,8.3-3.7,8.3-8.3v-17.7C34.3,269.1,30.6,265.4,26,265.4z"/>
		</g>
	</g>
	<g>
		<g>
			
				<linearGradient id="SVGID_00000017513721722691896270000013078128675916897457_" gradientUnits="userSpaceOnUse" x1="-45.9271" y1="51.8474" x2="458.8819" y2="553.4204">
				<stop  offset="0" style="stop-color:#7900FF"/>
				<stop  offset="1" style="stop-color:#BC7DFF"/>
			</linearGradient>
			<path style="fill:url(#SVGID_00000017513721722691896270000013078128675916897457_);" d="M26,106.2c-4.6,0-8.3,3.7-8.3,8.3v17.7
				c0,4.6,3.7,8.3,8.3,8.3c4.6,0,8.3-3.7,8.3-8.3v-17.7C34.3,109.9,30.6,106.2,26,106.2z"/>
		</g>
	</g>
	<g>
		<g>
			
				<linearGradient id="SVGID_00000057149935344785587770000013163797086427501473_" gradientUnits="userSpaceOnUse" x1="-152.0845" y1="158.6897" x2="352.7245" y2="660.2627">
				<stop  offset="0" style="stop-color:#7900FF"/>
				<stop  offset="1" style="stop-color:#BC7DFF"/>
			</linearGradient>
			<path style="fill:url(#SVGID_00000057149935344785587770000013163797086427501473_);" d="M26,318.5c-4.6,0-8.3,3.7-8.3,8.3v17.7
				c0,4.6,3.7,8.3,8.3,8.3c4.6,0,8.3-3.7,8.3-8.3v-17.7C34.3,322.2,30.6,318.5,26,318.5z"/>
		</g>
	</g>
	<g>
		<g>
			
				<linearGradient id="SVGID_00000086665439249532127490000012409797573852143273_" gradientUnits="userSpaceOnUse" x1="-178.6239" y1="185.4003" x2="326.1851" y2="686.9734">
				<stop  offset="0" style="stop-color:#7900FF"/>
				<stop  offset="1" style="stop-color:#BC7DFF"/>
			</linearGradient>
			<path style="fill:url(#SVGID_00000086665439249532127490000012409797573852143273_);" d="M26,371.6c-4.6,0-8.3,3.7-8.3,8.3v17.7
				c0,4.6,3.7,8.3,8.3,8.3c4.6,0,8.3-3.7,8.3-8.3v-17.7C34.3,375.3,30.6,371.6,26,371.6z"/>
		</g>
	</g>
	<g>
		<g>
			
				<linearGradient id="SVGID_00000066506441366873280120000016303102844059948424_" gradientUnits="userSpaceOnUse" x1="129.5278" y1="-124.7395" x2="634.3368" y2="376.8335">
				<stop  offset="0" style="stop-color:#7900FF"/>
				<stop  offset="1" style="stop-color:#BC7DFF"/>
			</linearGradient>
			<path style="fill:url(#SVGID_00000066506441366873280120000016303102844059948424_);" d="M486,212.3c-4.6,0-8.3,3.7-8.3,8.3v17.7
				c0,4.6,3.7,8.3,8.3,8.3c4.6,0,8.3-3.7,8.3-8.3v-17.7C494.3,216,490.6,212.3,486,212.3z"/>
		</g>
	</g>
	<g>
		<g>
			
				<linearGradient id="SVGID_00000115495456787045295650000007515953417653609905_" gradientUnits="userSpaceOnUse" x1="156.0673" y1="-151.4502" x2="660.8763" y2="350.1229">
				<stop  offset="0" style="stop-color:#7900FF"/>
				<stop  offset="1" style="stop-color:#BC7DFF"/>
			</linearGradient>
			<path style="fill:url(#SVGID_00000115495456787045295650000007515953417653609905_);" d="M486,159.2c-4.6,0-8.3,3.7-8.3,8.3v17.7
				c0,4.6,3.7,8.3,8.3,8.3c4.6,0,8.3-3.7,8.3-8.3v-17.7C494.3,163,490.6,159.2,486,159.2z"/>
		</g>
	</g>
	<g>
		<g>
			
				<linearGradient id="SVGID_00000165213973738590571990000017228231060845905813_" gradientUnits="userSpaceOnUse" x1="102.9884" y1="-98.0288" x2="607.7974" y2="403.5442">
				<stop  offset="0" style="stop-color:#7900FF"/>
				<stop  offset="1" style="stop-color:#BC7DFF"/>
			</linearGradient>
			<path style="fill:url(#SVGID_00000165213973738590571990000017228231060845905813_);" d="M486,265.4c-4.6,0-8.3,3.7-8.3,8.3v17.7
				c0,4.6,3.7,8.3,8.3,8.3c4.6,0,8.3-3.7,8.3-8.3v-17.7C494.3,269.1,490.6,265.4,486,265.4z"/>
		</g>
	</g>
	<g>
		<g>
			
				<linearGradient id="SVGID_00000137815751524670753510000005625407996377420200_" gradientUnits="userSpaceOnUse" x1="182.6067" y1="-178.1608" x2="687.4157" y2="323.4122">
				<stop  offset="0" style="stop-color:#7900FF"/>
				<stop  offset="1" style="stop-color:#BC7DFF"/>
			</linearGradient>
			<path style="fill:url(#SVGID_00000137815751524670753510000005625407996377420200_);" d="M486,106.2c-4.6,0-8.3,3.7-8.3,8.3v17.7
				c0,4.6,3.7,8.3,8.3,8.3c4.6,0,8.3-3.7,8.3-8.3v-17.7C494.3,109.9,490.6,106.2,486,106.2z"/>
		</g>
	</g>
	<g>
		<g>
			
				<linearGradient id="SVGID_00000132051560428062799190000006358694693292742285_" gradientUnits="userSpaceOnUse" x1="76.4493" y1="-71.3186" x2="581.2583" y2="430.2545">
				<stop  offset="0" style="stop-color:#7900FF"/>
				<stop  offset="1" style="stop-color:#BC7DFF"/>
			</linearGradient>
			<path style="fill:url(#SVGID_00000132051560428062799190000006358694693292742285_);" d="M486,318.5c-4.6,0-8.3,3.7-8.3,8.3v17.7
				c0,4.6,3.7,8.3,8.3,8.3c4.6,0,8.3-3.7,8.3-8.3v-17.7C494.3,322.2,490.6,318.5,486,318.5z"/>
		</g>
	</g>
	<g>
		<g>
			
				<linearGradient id="SVGID_00000012441541022638781570000016732910834161064075_" gradientUnits="userSpaceOnUse" x1="49.9099" y1="-44.6079" x2="554.7189" y2="456.9651">
				<stop  offset="0" style="stop-color:#7900FF"/>
				<stop  offset="1" style="stop-color:#BC7DFF"/>
			</linearGradient>
			<path style="fill:url(#SVGID_00000012441541022638781570000016732910834161064075_);" d="M486,371.6c-4.6,0-8.3,3.7-8.3,8.3v17.7
				c0,4.6,3.7,8.3,8.3,8.3c4.6,0,8.3-3.7,8.3-8.3v-17.7C494.3,375.3,490.6,371.6,486,371.6z"/>
		</g>
	</g>
	<g>
		<g>
			
				<linearGradient id="SVGID_00000095318197629040980060000011421268656929867451_" gradientUnits="userSpaceOnUse" x1="-126.1972" y1="132.6354" x2="378.6118" y2="634.2084">
				<stop  offset="0" style="stop-color:#7900FF"/>
				<stop  offset="1" style="stop-color:#BC7DFF"/>
			</linearGradient>
			<path style="fill:url(#SVGID_00000095318197629040980060000011421268656929867451_);" d="M238.3,477.7h-17.7
				c-4.6,0-8.3,3.7-8.3,8.3s3.7,8.3,8.3,8.3h17.7c4.6,0,8.3-3.7,8.3-8.3S242.9,477.7,238.3,477.7z"/>
		</g>
	</g>
	<g>
		<g>
			
				<linearGradient id="SVGID_00000031902739513420969890000005989821501018269587_" gradientUnits="userSpaceOnUse" x1="-152.5665" y1="159.1748" x2="352.2425" y2="660.7479">
				<stop  offset="0" style="stop-color:#7900FF"/>
				<stop  offset="1" style="stop-color:#BC7DFF"/>
			</linearGradient>
			<path style="fill:url(#SVGID_00000031902739513420969890000005989821501018269587_);" d="M185.2,477.7h-17.7
				c-4.6,0-8.3,3.7-8.3,8.3s3.7,8.3,8.3,8.3h17.7c4.6,0,8.3-3.7,8.3-8.3S189.8,477.7,185.2,477.7z"/>
		</g>
	</g>
	<g>
		<g>
			
				<linearGradient id="SVGID_00000177485169174516380790000008697604861757998238_" gradientUnits="userSpaceOnUse" x1="-99.8279" y1="106.0959" x2="404.9811" y2="607.6689">
				<stop  offset="0" style="stop-color:#7900FF"/>
				<stop  offset="1" style="stop-color:#BC7DFF"/>
			</linearGradient>
			<path style="fill:url(#SVGID_00000177485169174516380790000008697604861757998238_);" d="M291.4,477.7h-17.7
				c-4.6,0-8.3,3.7-8.3,8.3s3.7,8.3,8.3,8.3h17.7c4.6,0,8.3-3.7,8.3-8.3S296,477.7,291.4,477.7z"/>
		</g>
	</g>
	<g>
		<g>
			
				<linearGradient id="SVGID_00000054947159711504856000000004038447365297596087_" gradientUnits="userSpaceOnUse" x1="-178.9358" y1="185.7143" x2="325.8731" y2="687.2873">
				<stop  offset="0" style="stop-color:#7900FF"/>
				<stop  offset="1" style="stop-color:#BC7DFF"/>
			</linearGradient>
			<path style="fill:url(#SVGID_00000054947159711504856000000004038447365297596087_);" d="M132.1,477.7h-17.7
				c-4.6,0-8.3,3.7-8.3,8.3s3.7,8.3,8.3,8.3h17.7c4.6,0,8.3-3.7,8.3-8.3S136.7,477.7,132.1,477.7z"/>
		</g>
	</g>
	<g>
		<g>
			
				<linearGradient id="SVGID_00000119110002251764473710000009583491292202772620_" gradientUnits="userSpaceOnUse" x1="-222.828" y1="229.8896" x2="281.981" y2="731.4626">
				<stop  offset="0" style="stop-color:#7900FF"/>
				<stop  offset="1" style="stop-color:#BC7DFF"/>
			</linearGradient>
			<path style="fill:url(#SVGID_00000119110002251764473710000009583491292202772620_);" d="M79.1,477.7H52v-9.4
				c0-4.6-3.7-8.3-8.3-8.3h-9.4v-27.1c0-4.6-3.7-8.3-8.3-8.3c-4.6,0-8.3,3.7-8.3,8.3V460H8.3c-4.6,0-8.3,3.7-8.3,8.3v35.4
				c0,4.6,3.7,8.3,8.3,8.3h35.4c4.6,0,8.3-3.7,8.3-8.3v-9.4h27.1c4.6,0,8.3-3.7,8.3-8.3S83.6,477.7,79.1,477.7z M35.4,495.4H16.6
				v-18.8h18.8L35.4,495.4L35.4,495.4z"/>
		</g>
	</g>
	<g>
		<g>
			
				<linearGradient id="SVGID_00000104689501636557248180000011850616300214993547_" gradientUnits="userSpaceOnUse" x1="-73.4589" y1="79.5569" x2="431.3501" y2="581.1299">
				<stop  offset="0" style="stop-color:#7900FF"/>
				<stop  offset="1" style="stop-color:#BC7DFF"/>
			</linearGradient>
			<path style="fill:url(#SVGID_00000104689501636557248180000011850616300214993547_);" d="M344.5,477.7h-17.7
				c-4.6,0-8.3,3.7-8.3,8.3s3.7,8.3,8.3,8.3h17.7c4.6,0,8.3-3.7,8.3-8.3S349,477.7,344.5,477.7z"/>
		</g>
	</g>
	<g>
		<g>
			
				<linearGradient id="SVGID_00000047060726658508464900000005578446548425258423_" gradientUnits="userSpaceOnUse" x1="-47.0896" y1="53.0174" x2="457.7194" y2="554.5905">
				<stop  offset="0" style="stop-color:#7900FF"/>
				<stop  offset="1" style="stop-color:#BC7DFF"/>
			</linearGradient>
			<path style="fill:url(#SVGID_00000047060726658508464900000005578446548425258423_);" d="M397.5,477.7h-17.7
				c-4.6,0-8.3,3.7-8.3,8.3s3.7,8.3,8.3,8.3h17.7c4.6,0,8.3-3.7,8.3-8.3S402.1,477.7,397.5,477.7z"/>
		</g>
	</g>
	<g>
		<g>
			
				<linearGradient id="SVGID_00000003090286182390427470000012317083100788882111_" gradientUnits="userSpaceOnUse" x1="103.811" y1="-98.8567" x2="608.6199" y2="402.7163">
				<stop  offset="0" style="stop-color:#7900FF"/>
				<stop  offset="1" style="stop-color:#BC7DFF"/>
			</linearGradient>
			<path style="fill:url(#SVGID_00000003090286182390427470000012317083100788882111_);" d="M238.3,17.7h-17.7
				c-4.6,0-8.3,3.7-8.3,8.3c0,4.6,3.7,8.3,8.3,8.3h17.7c4.6,0,8.3-3.7,8.3-8.3C246.6,21.4,242.9,17.7,238.3,17.7z"/>
		</g>
	</g>
	<g>
		<g>
			
				<linearGradient id="SVGID_00000051374983383687236960000016766412446573986457_" gradientUnits="userSpaceOnUse" x1="77.4417" y1="-72.3174" x2="582.2507" y2="429.2557">
				<stop  offset="0" style="stop-color:#7900FF"/>
				<stop  offset="1" style="stop-color:#BC7DFF"/>
			</linearGradient>
			<path style="fill:url(#SVGID_00000051374983383687236960000016766412446573986457_);" d="M185.2,17.7h-17.7
				c-4.6,0-8.3,3.7-8.3,8.3c0,4.6,3.7,8.3,8.3,8.3h17.7c4.6,0,8.3-3.7,8.3-8.3C193.5,21.4,189.8,17.7,185.2,17.7z"/>
		</g>
	</g>
	<g>
		<g>
			
				<linearGradient id="SVGID_00000036966812560571388850000004574721680565030284_" gradientUnits="userSpaceOnUse" x1="130.1803" y1="-125.3962" x2="634.9893" y2="376.1768">
				<stop  offset="0" style="stop-color:#7900FF"/>
				<stop  offset="1" style="stop-color:#BC7DFF"/>
			</linearGradient>
			<path style="fill:url(#SVGID_00000036966812560571388850000004574721680565030284_);" d="M291.4,17.7h-17.7
				c-4.6,0-8.3,3.7-8.3,8.3c0,4.6,3.7,8.3,8.3,8.3h17.7c4.6,0,8.3-3.7,8.3-8.3C299.7,21.4,296,17.7,291.4,17.7z"/>
		</g>
	</g>
	<g>
		<g>
			
				<linearGradient id="SVGID_00000061431500335827866590000010829886096979387806_" gradientUnits="userSpaceOnUse" x1="51.0724" y1="-45.7779" x2="555.8814" y2="455.7951">
				<stop  offset="0" style="stop-color:#7900FF"/>
				<stop  offset="1" style="stop-color:#BC7DFF"/>
			</linearGradient>
			<path style="fill:url(#SVGID_00000061431500335827866590000010829886096979387806_);" d="M132.1,17.7h-17.7
				c-4.6,0-8.3,3.7-8.3,8.3c0,4.6,3.7,8.3,8.3,8.3h17.7c4.6,0,8.3-3.7,8.3-8.3C140.4,21.4,136.7,17.7,132.1,17.7z"/>
		</g>
	</g>
	<g>
		<g>
			
				<linearGradient id="SVGID_00000111899050045908553380000013718197060665088394_" gradientUnits="userSpaceOnUse" x1="2.6438" y1="2.9631" x2="507.4528" y2="504.5361">
				<stop  offset="0" style="stop-color:#7900FF"/>
				<stop  offset="1" style="stop-color:#BC7DFF"/>
			</linearGradient>
			<path style="fill:url(#SVGID_00000111899050045908553380000013718197060665088394_);" d="M79.1,17.7H52V8.3C52,3.7,48.3,0,43.7,0
				H8.3C3.7,0,0,3.7,0,8.3v35.4C0,48.3,3.7,52,8.3,52h9.4v27.1c0,4.6,3.7,8.3,8.3,8.3c4.6,0,8.3-3.7,8.3-8.3V52h9.4
				c4.6,0,8.3-3.7,8.3-8.3v-9.4h27.1c4.6,0,8.3-3.7,8.3-8.3C87.4,21.4,83.6,17.7,79.1,17.7z M35.4,35.4H16.6V16.6h18.8L35.4,35.4
				L35.4,35.4z"/>
		</g>
	</g>
	<g>
		<g>
			
				<linearGradient id="SVGID_00000127754189580829647200000014331115357608762772_" gradientUnits="userSpaceOnUse" x1="156.5493" y1="-151.9353" x2="661.3583" y2="349.6377">
				<stop  offset="0" style="stop-color:#7900FF"/>
				<stop  offset="1" style="stop-color:#BC7DFF"/>
			</linearGradient>
			<path style="fill:url(#SVGID_00000127754189580829647200000014331115357608762772_);" d="M344.5,17.7h-17.7
				c-4.6,0-8.3,3.7-8.3,8.3c0,4.6,3.7,8.3,8.3,8.3h17.7c4.6,0,8.3-3.7,8.3-8.3C352.8,21.4,349,17.7,344.5,17.7z"/>
		</g>
	</g>
	<g>
		<g>
			
				<linearGradient id="SVGID_00000120556176617097326780000005682160116485371288_" gradientUnits="userSpaceOnUse" x1="182.9186" y1="-178.4748" x2="687.7276" y2="323.0983">
				<stop  offset="0" style="stop-color:#7900FF"/>
				<stop  offset="1" style="stop-color:#BC7DFF"/>
			</linearGradient>
			<path style="fill:url(#SVGID_00000120556176617097326780000005682160116485371288_);" d="M397.5,17.7h-17.7
				c-4.6,0-8.3,3.7-8.3,8.3c0,4.6,3.7,8.3,8.3,8.3h17.7c4.6,0,8.3-3.7,8.3-8.3C405.8,21.4,402.1,17.7,397.5,17.7z"/>
		</g>
	</g>
</g>
</svg>
